<?xml version="1.0" encoding="ISO8859-1"?>
<svg xmlns="http://www.w3.org/2000/svg" xmlns:xlink="http://www.w3.org/1999/xlink" width="288px" height="252px" viewBox="0 0 288 252" version="1.1" id="Fig:dens">
  <metadata xmlns:gridsvg="http://www.stat.auckland.ac.nz/~paul/R/gridSVG/">
    <gridsvg:generator name="gridSVG" version="1.7-1" time="2020-04-10 19:19:31"/>
    <gridsvg:argument name="name" value="arrayQualityMetrics report for rawData/dens.svg"/>
    <gridsvg:argument name="exportCoords" value="none"/>
    <gridsvg:argument name="exportMappings" value="none"/>
    <gridsvg:argument name="exportJS" value="none"/>
    <gridsvg:argument name="res" value="72"/>
    <gridsvg:argument name="prefix" value="Fig:dens"/>
    <gridsvg:argument name="addClasses" value="FALSE"/>
    <gridsvg:argument name="indent" value="TRUE"/>
    <gridsvg:argument name="htmlWrapper" value="FALSE"/>
    <gridsvg:argument name="usePaths" value="none"/>
    <gridsvg:argument name="uniqueNames" value="TRUE"/>
    <gridsvg:separator name="id.sep" value="."/>
    <gridsvg:separator name="gPath.sep" value="::"/>
    <gridsvg:separator name="vpPath.sep" value="::"/>
  </metadata>
  <g transform="translate(0, 252) scale(1, -1)">
    <g id="Fig:densgridSVG" fill="none" stroke="rgb(0,0,0)" stroke-dasharray="none" stroke-width="0.75" font-size="12" font-family="Helvetica, Arial, FreeSans, Liberation Sans, Nimbus Sans L, sans-serif" opacity="1" stroke-linecap="round" stroke-linejoin="round" stroke-miterlimit="10" stroke-opacity="1" fill-opacity="0" font-weight="normal" font-style="normal">
      <g id="Fig:densplot_01.background.1">
        <rect id="Fig:densplot_01.background.1.1" x="0" y="0" width="288" height="252" transform="" fill="none" stroke="none" stroke-opacity="0" fill-opacity="0"/>
      </g>
      <g id="Fig:densplot_01.toplevel.vp.1" font-size="12">
        <g id="Fig:densplot_01.ylab.vp.1">
          <g id="Fig:densplot_01.ylab.1">
            <g id="Fig:densplot_01.ylab.1.1" transform="translate(10.31, 138.09)" stroke-width="0.1">
              <g id="Fig:densplot_01.ylab.1.1.scale" transform="scale(1, -1)">
                <text x="0" y="0" id="Fig:densplot_01.ylab.1.1.text" transform="rotate(-90)" text-anchor="middle" opacity="1" stroke="rgb(0,0,0)" fill="rgb(0,0,0)" stroke-opacity="1" fill-opacity="1" font-size="12" font-weight="normal" font-style="normal">
                  <tspan id="Fig:densplot_01.ylab.1.1.tspan.1" dy="4.31" x="0">Density</tspan>
                </text>
              </g>
            </g>
          </g>
        </g>
        <g id="Fig:densplot_01.figure.vp.1"/>
        <defs>
          <clipPath id="Fig:densplot_01.panel.1.1.vp.1.clipPath">
            <rect x="44.8" y="42.19" width="231.2" height="191.81" fill="none" stroke="none"/>
          </clipPath>
        </defs>
        <g id="Fig:densplot_01.panel.1.1.vp.1" clip-path="url(#Fig:densplot_01.panel.1.1.vp.1.clipPath)"/>
        <g id="Fig:densplot_01.strip.1.1.off.vp.1"/>
        <g id="Fig:densplot_01.strip.left.1.1.off.vp.1">
          <g id="Fig:densplot_01.ticks.left.panel.1.1.1">
            <polyline id="Fig:densplot_01.ticks.left.panel.1.1.1.1" points="44.8,53.97 39.13,53.97" stroke="rgb(0,0,0)" opacity="1" stroke-dasharray="none" stroke-width="0.75" stroke-opacity="1" fill="none"/>
            <polyline id="Fig:densplot_01.ticks.left.panel.1.1.1.2" points="44.8,87.21 39.13,87.21" stroke="rgb(0,0,0)" opacity="1" stroke-dasharray="none" stroke-width="0.75" stroke-opacity="1" fill="none"/>
            <polyline id="Fig:densplot_01.ticks.left.panel.1.1.1.3" points="44.8,120.46 39.13,120.46" stroke="rgb(0,0,0)" opacity="1" stroke-dasharray="none" stroke-width="0.75" stroke-opacity="1" fill="none"/>
            <polyline id="Fig:densplot_01.ticks.left.panel.1.1.1.4" points="44.8,153.71 39.13,153.71" stroke="rgb(0,0,0)" opacity="1" stroke-dasharray="none" stroke-width="0.75" stroke-opacity="1" fill="none"/>
            <polyline id="Fig:densplot_01.ticks.left.panel.1.1.1.5" points="44.8,186.96 39.13,186.96" stroke="rgb(0,0,0)" opacity="1" stroke-dasharray="none" stroke-width="0.75" stroke-opacity="1" fill="none"/>
            <polyline id="Fig:densplot_01.ticks.left.panel.1.1.1.6" points="44.8,220.21 39.13,220.21" stroke="rgb(0,0,0)" opacity="1" stroke-dasharray="none" stroke-width="0.75" stroke-opacity="1" fill="none"/>
          </g>
          <g id="Fig:densplot_01.ticklabels.left.panel.1.1.1">
            <g id="Fig:densplot_01.ticklabels.left.panel.1.1.1.1" transform="translate(33.47, 53.97)" stroke-width="0.1">
              <g id="Fig:densplot_01.ticklabels.left.panel.1.1.1.1.scale" transform="scale(1, -1)">
                <text x="0" y="0" id="Fig:densplot_01.ticklabels.left.panel.1.1.1.1.text" transform="rotate(-90)" text-anchor="middle" stroke="rgb(0,0,0)" opacity="1" fill="rgb(0,0,0)" stroke-opacity="1" fill-opacity="1" font-size="9.6" font-weight="normal" font-style="normal">
                  <tspan id="Fig:densplot_01.ticklabels.left.panel.1.1.1.1.tspan.1" dy="0" x="0">0.000</tspan>
                </text>
              </g>
            </g>
            <g id="Fig:densplot_01.ticklabels.left.panel.1.1.1.2" transform="translate(33.47, 87.21)" stroke-width="0.1">
              <g id="Fig:densplot_01.ticklabels.left.panel.1.1.1.2.scale" transform="scale(1, -1)">
                <text x="0" y="0" id="Fig:densplot_01.ticklabels.left.panel.1.1.1.2.text" transform="rotate(-90)" text-anchor="middle" stroke="rgb(0,0,0)" opacity="1" fill="rgb(0,0,0)" stroke-opacity="1" fill-opacity="1" font-size="9.6" font-weight="normal" font-style="normal">
                  <tspan id="Fig:densplot_01.ticklabels.left.panel.1.1.1.2.tspan.1" dy="0" x="0">0.002</tspan>
                </text>
              </g>
            </g>
            <g id="Fig:densplot_01.ticklabels.left.panel.1.1.1.3" transform="translate(33.47, 120.46)" stroke-width="0.1">
              <g id="Fig:densplot_01.ticklabels.left.panel.1.1.1.3.scale" transform="scale(1, -1)">
                <text x="0" y="0" id="Fig:densplot_01.ticklabels.left.panel.1.1.1.3.text" transform="rotate(-90)" text-anchor="middle" stroke="rgb(0,0,0)" opacity="1" fill="rgb(0,0,0)" stroke-opacity="1" fill-opacity="1" font-size="9.6" font-weight="normal" font-style="normal">
                  <tspan id="Fig:densplot_01.ticklabels.left.panel.1.1.1.3.tspan.1" dy="0" x="0">0.004</tspan>
                </text>
              </g>
            </g>
            <g id="Fig:densplot_01.ticklabels.left.panel.1.1.1.4" transform="translate(33.47, 153.71)" stroke-width="0.1">
              <g id="Fig:densplot_01.ticklabels.left.panel.1.1.1.4.scale" transform="scale(1, -1)">
                <text x="0" y="0" id="Fig:densplot_01.ticklabels.left.panel.1.1.1.4.text" transform="rotate(-90)" text-anchor="middle" stroke="rgb(0,0,0)" opacity="1" fill="rgb(0,0,0)" stroke-opacity="1" fill-opacity="1" font-size="9.6" font-weight="normal" font-style="normal">
                  <tspan id="Fig:densplot_01.ticklabels.left.panel.1.1.1.4.tspan.1" dy="0" x="0">0.006</tspan>
                </text>
              </g>
            </g>
            <g id="Fig:densplot_01.ticklabels.left.panel.1.1.1.5" transform="translate(33.47, 186.96)" stroke-width="0.1">
              <g id="Fig:densplot_01.ticklabels.left.panel.1.1.1.5.scale" transform="scale(1, -1)">
                <text x="0" y="0" id="Fig:densplot_01.ticklabels.left.panel.1.1.1.5.text" transform="rotate(-90)" text-anchor="middle" stroke="rgb(0,0,0)" opacity="1" fill="rgb(0,0,0)" stroke-opacity="1" fill-opacity="1" font-size="9.6" font-weight="normal" font-style="normal">
                  <tspan id="Fig:densplot_01.ticklabels.left.panel.1.1.1.5.tspan.1" dy="0" x="0">0.008</tspan>
                </text>
              </g>
            </g>
            <g id="Fig:densplot_01.ticklabels.left.panel.1.1.1.6" transform="translate(33.47, 220.21)" stroke-width="0.1">
              <g id="Fig:densplot_01.ticklabels.left.panel.1.1.1.6.scale" transform="scale(1, -1)">
                <text x="0" y="0" id="Fig:densplot_01.ticklabels.left.panel.1.1.1.6.text" transform="rotate(-90)" text-anchor="middle" stroke="rgb(0,0,0)" opacity="1" fill="rgb(0,0,0)" stroke-opacity="1" fill-opacity="1" font-size="9.6" font-weight="normal" font-style="normal">
                  <tspan id="Fig:densplot_01.ticklabels.left.panel.1.1.1.6.tspan.1" dy="0" x="0">0.010</tspan>
                </text>
              </g>
            </g>
          </g>
        </g>
        <g id="Fig:densplot_01.panel.1.1.off.vp.1">
          <g id="Fig:densplot_01.ticks.bottom.panel.1.1.1">
            <polyline id="Fig:densplot_01.ticks.bottom.panel.1.1.1.1" points="70.05,42.19 70.05,36.52" stroke="rgb(0,0,0)" opacity="1" stroke-dasharray="none" stroke-width="0.75" stroke-opacity="1" fill="none"/>
            <polyline id="Fig:densplot_01.ticks.bottom.panel.1.1.1.2" points="131.52,42.19 131.52,36.52" stroke="rgb(0,0,0)" opacity="1" stroke-dasharray="none" stroke-width="0.75" stroke-opacity="1" fill="none"/>
            <polyline id="Fig:densplot_01.ticks.bottom.panel.1.1.1.3" points="193,42.19 193,36.52" stroke="rgb(0,0,0)" opacity="1" stroke-dasharray="none" stroke-width="0.75" stroke-opacity="1" fill="none"/>
            <polyline id="Fig:densplot_01.ticks.bottom.panel.1.1.1.4" points="254.48,42.19 254.48,36.52" stroke="rgb(0,0,0)" opacity="1" stroke-dasharray="none" stroke-width="0.75" stroke-opacity="1" fill="none"/>
          </g>
          <g id="Fig:densplot_01.ticklabels.bottom.panel.1.1.1">
            <g id="Fig:densplot_01.ticklabels.bottom.panel.1.1.1.1" transform="translate(70.05, 30.85)" stroke-width="0.1">
              <g id="Fig:densplot_01.ticklabels.bottom.panel.1.1.1.1.scale" transform="scale(1, -1)">
                <text x="0" y="0" id="Fig:densplot_01.ticklabels.bottom.panel.1.1.1.1.text" text-anchor="middle" stroke="rgb(0,0,0)" opacity="1" fill="rgb(0,0,0)" stroke-opacity="1" fill-opacity="1" font-size="9.6" font-weight="normal" font-style="normal">
                  <tspan id="Fig:densplot_01.ticklabels.bottom.panel.1.1.1.1.tspan.1" dy="7.18" x="0">0</tspan>
                </text>
              </g>
            </g>
            <g id="Fig:densplot_01.ticklabels.bottom.panel.1.1.1.2" transform="translate(131.52, 30.85)" stroke-width="0.1">
              <g id="Fig:densplot_01.ticklabels.bottom.panel.1.1.1.2.scale" transform="scale(1, -1)">
                <text x="0" y="0" id="Fig:densplot_01.ticklabels.bottom.panel.1.1.1.2.text" text-anchor="middle" stroke="rgb(0,0,0)" opacity="1" fill="rgb(0,0,0)" stroke-opacity="1" fill-opacity="1" font-size="9.6" font-weight="normal" font-style="normal">
                  <tspan id="Fig:densplot_01.ticklabels.bottom.panel.1.1.1.2.tspan.1" dy="7.18" x="0">2000</tspan>
                </text>
              </g>
            </g>
            <g id="Fig:densplot_01.ticklabels.bottom.panel.1.1.1.3" transform="translate(193, 30.85)" stroke-width="0.1">
              <g id="Fig:densplot_01.ticklabels.bottom.panel.1.1.1.3.scale" transform="scale(1, -1)">
                <text x="0" y="0" id="Fig:densplot_01.ticklabels.bottom.panel.1.1.1.3.text" text-anchor="middle" stroke="rgb(0,0,0)" opacity="1" fill="rgb(0,0,0)" stroke-opacity="1" fill-opacity="1" font-size="9.6" font-weight="normal" font-style="normal">
                  <tspan id="Fig:densplot_01.ticklabels.bottom.panel.1.1.1.3.tspan.1" dy="7.18" x="0">4000</tspan>
                </text>
              </g>
            </g>
            <g id="Fig:densplot_01.ticklabels.bottom.panel.1.1.1.4" transform="translate(254.48, 30.85)" stroke-width="0.1">
              <g id="Fig:densplot_01.ticklabels.bottom.panel.1.1.1.4.scale" transform="scale(1, -1)">
                <text x="0" y="0" id="Fig:densplot_01.ticklabels.bottom.panel.1.1.1.4.text" text-anchor="middle" stroke="rgb(0,0,0)" opacity="1" fill="rgb(0,0,0)" stroke-opacity="1" fill-opacity="1" font-size="9.6" font-weight="normal" font-style="normal">
                  <tspan id="Fig:densplot_01.ticklabels.bottom.panel.1.1.1.4.tspan.1" dy="7.18" x="0">6000</tspan>
                </text>
              </g>
            </g>
          </g>
        </g>
        <defs>
          <clipPath id="Fig:densplot_01.panel.1.1.vp.2.clipPath">
            <rect x="44.8" y="42.19" width="231.2" height="191.81" fill="none" stroke="none"/>
          </clipPath>
        </defs>
        <g id="Fig:densplot_01.panel.1.1.vp.2" clip-path="url(#Fig:densplot_01.panel.1.1.vp.2.clipPath)">
          <g id="Fig:densplot_01.xyplot.lines.group.1.panel.1.1.1">
            <polyline id="Fig:densplot_01.xyplot.lines.group.1.panel.1.1.1.1" points="63.96,54.02 64.33,54.06 64.71,54.12 65.09,54.22 65.46,54.36 65.84,54.57 66.22,54.87 66.6,55.28 66.97,55.84 67.35,56.57 67.73,57.49 68.11,58.62 68.48,59.97 68.86,61.54 69.24,63.31 69.62,65.24 69.99,67.28 70.37,69.36 70.75,71.38 71.13,73.26 71.5,74.92 71.88,76.29 72.26,77.34 72.64,78.01 73.01,78.31 73.39,78.25 73.77,77.86 74.15,77.19 74.52,76.28 74.9,75.22 75.28,74.07 75.66,72.88 76.03,71.71 76.41,70.57 76.79,69.5 77.16,68.5 77.54,67.6 77.92,66.78 78.3,66.05 78.67,65.4 79.05,64.83 79.43,64.32 79.81,63.87 80.18,63.46 80.56,63.1 80.94,62.78 81.32,62.49 81.69,62.22 82.07,61.98 82.45,61.76 82.83,61.56 83.2,61.38 83.58,61.21 83.96,61.05 84.34,60.91 84.71,60.77 85.09,60.65 85.47,60.53 85.85,60.42 86.22,60.31 86.6,60.21 86.98,60.12 87.36,60.03 87.73,59.95 88.11,59.87 88.49,59.8 88.87,59.73 89.24,59.66 89.62,59.6 90,59.54 90.37,59.49 90.75,59.44 91.13,59.39 91.51,59.34 91.88,59.3 92.26,59.26 92.64,59.22 93.02,59.18 93.39,59.15 93.77,59.11 94.15,59.08 94.53,59.05 94.9,59.02 95.28,58.99 95.66,58.96 96.04,58.93 96.41,58.9 96.79,58.87 97.17,58.85 97.55,58.82 97.92,58.79 98.3,58.76 98.68,58.74 99.06,58.71 99.43,58.68 99.81,58.65 100.19,58.62 100.57,58.59 100.94,58.56 101.32,58.53 101.7,58.5 102.07,58.47 102.45,58.44 102.83,58.41 103.21,58.38 103.58,58.36 103.96,58.33 104.34,58.3 104.72,58.28 105.09,58.25 105.47,58.23 105.85,58.2 106.23,58.18 106.6,58.15 106.98,58.13 107.36,58.1 107.74,58.08 108.11,58.05 108.49,58.03 108.87,58 109.25,57.97 109.62,57.95 110,57.92 110.38,57.9 110.76,57.87 111.13,57.85 111.51,57.82 111.89,57.8 112.27,57.78 112.64,57.75 113.02,57.73 113.4,57.71 113.77,57.69 114.15,57.67 114.53,57.65 114.91,57.63 115.28,57.62 115.66,57.6 116.04,57.58 116.42,57.56 116.79,57.54 117.17,57.52 117.55,57.5 117.93,57.48 118.3,57.46 118.68,57.44 119.06,57.42 119.44,57.4 119.81,57.37 120.19,57.35 120.57,57.33 120.95,57.31 121.32,57.29 121.7,57.27 122.08,57.25 122.46,57.24 122.83,57.22 123.21,57.2 123.59,57.18 123.97,57.16 124.34,57.15 124.72,57.13 125.1,57.11 125.47,57.1 125.85,57.08 126.23,57.06 126.61,57.05 126.98,57.03 127.36,57.02 127.74,57 128.12,56.99 128.49,56.97 128.87,56.96 129.25,56.95 129.63,56.93 130,56.92 130.38,56.91 130.76,56.9 131.14,56.88 131.51,56.87 131.89,56.86 132.27,56.84 132.65,56.83 133.02,56.81 133.4,56.79 133.78,56.77 134.16,56.75 134.53,56.72 134.91,56.7 135.29,56.66 135.67,56.63 136.04,56.59 136.42,56.56 136.8,56.51 137.18,56.47 137.55,56.43 137.93,56.38 138.31,56.34 138.68,56.29 139.06,56.25 139.44,56.21 139.82,56.17 140.19,56.13 140.57,56.09 140.95,56.06 141.33,56.02 141.7,55.99 142.08,55.96 142.46,55.92 142.84,55.89 143.21,55.86 143.59,55.83 143.97,55.8 144.35,55.78 144.72,55.75 145.1,55.72 145.48,55.69 145.86,55.67 146.23,55.64 146.61,55.62 146.99,55.6 147.37,55.57 147.74,55.55 148.12,55.53 148.5,55.5 148.88,55.48 149.25,55.46 149.63,55.44 150.01,55.41 150.38,55.39 150.76,55.36 151.14,55.34 151.52,55.31 151.89,55.29 152.27,55.27 152.65,55.24 153.03,55.22 153.4,55.19 153.78,55.17 154.16,55.15 154.54,55.13 154.91,55.1 155.29,55.08 155.67,55.06 156.05,55.05 156.42,55.03 156.8,55.01 157.18,54.99 157.56,54.98 157.93,54.96 158.31,54.95 158.69,54.93 159.07,54.91 159.44,54.9 159.82,54.89 160.2,54.87 160.58,54.86 160.95,54.84 161.33,54.83 161.71,54.82 162.08,54.8 162.46,54.79 162.84,54.78 163.22,54.76 163.59,54.75 163.97,54.74 164.35,54.72 164.73,54.71 165.1,54.7 165.48,54.68 165.86,54.67 166.24,54.66 166.61,54.65 166.99,54.64 167.37,54.63 167.75,54.62 168.12,54.61 168.5,54.6 168.88,54.59 169.26,54.58 169.63,54.57 170.01,54.56 170.39,54.55 170.77,54.54 171.14,54.53 171.52,54.52 171.9,54.51 172.28,54.49 172.65,54.48 173.03,54.47 173.41,54.46 173.79,54.45 174.16,54.44 174.54,54.43 174.92,54.42 175.29,54.42 175.67,54.41 176.05,54.41 176.43,54.4 176.8,54.4 177.18,54.4 177.56,54.39 177.94,54.39 178.31,54.38 178.69,54.38 179.07,54.37 179.45,54.37 179.82,54.36 180.2,54.36 180.58,54.35 180.96,54.34 181.33,54.34 181.71,54.33 182.09,54.32 182.47,54.32 182.84,54.31 183.22,54.31 183.6,54.3 183.98,54.3 184.35,54.29 184.73,54.29 185.11,54.28 185.49,54.28 185.86,54.28 186.24,54.27 186.62,54.27 186.99,54.26 187.37,54.26 187.75,54.26 188.13,54.25 188.5,54.25 188.88,54.25 189.26,54.24 189.64,54.24 190.01,54.24 190.39,54.24 190.77,54.24 191.15,54.23 191.52,54.23 191.9,54.23 192.28,54.23 192.66,54.23 193.03,54.23 193.41,54.22 193.79,54.22 194.17,54.22 194.54,54.22 194.92,54.21 195.3,54.21 195.68,54.2 196.05,54.2 196.43,54.2 196.81,54.19 197.19,54.19 197.56,54.18 197.94,54.18 198.32,54.18 198.69,54.18 199.07,54.17 199.45,54.17 199.83,54.17 200.2,54.17 200.58,54.16 200.96,54.16 201.34,54.16 201.71,54.16 202.09,54.15 202.47,54.15 202.85,54.14 203.22,54.14 203.6,54.14 203.98,54.13 204.36,54.13 204.73,54.13 205.11,54.13 205.49,54.12 205.87,54.12 206.24,54.12 206.62,54.12 207,54.12 207.38,54.12 207.75,54.12 208.13,54.12 208.51,54.12 208.89,54.12 209.26,54.12 209.64,54.12 210.02,54.12 210.4,54.12 210.77,54.12 211.15,54.11 211.53,54.11 211.9,54.11 212.28,54.11 212.66,54.11 213.04,54.1 213.41,54.1 213.79,54.1 214.17,54.1 214.55,54.1 214.92,54.1 215.3,54.09 215.68,54.09 216.06,54.09 216.43,54.09 216.81,54.09 217.19,54.09 217.57,54.09 217.94,54.09 218.32,54.09 218.7,54.09 219.08,54.09 219.45,54.09 219.83,54.09 220.21,54.09 220.59,54.09 220.96,54.08 221.34,54.08 221.72,54.08 222.1,54.08 222.47,54.08 222.85,54.08 223.23,54.08 223.6,54.07 223.98,54.07 224.36,54.07 224.74,54.07 225.11,54.07 225.49,54.06 225.87,54.06 226.25,54.06 226.62,54.06 227,54.06 227.38,54.06 227.76,54.06 228.13,54.06 228.51,54.06 228.89,54.06 229.27,54.06 229.64,54.05 230.02,54.05 230.4,54.05 230.78,54.05 231.15,54.05 231.53,54.05 231.91,54.05 232.29,54.05 232.66,54.05 233.04,54.05 233.42,54.05 233.8,54.05 234.17,54.04 234.55,54.04 234.93,54.04 235.3,54.04 235.68,54.04 236.06,54.04 236.44,54.04 236.81,54.04 237.19,54.04 237.57,54.04 237.95,54.04 238.32,54.04 238.7,54.04 239.08,54.04 239.46,54.04 239.83,54.04 240.21,54.04 240.59,54.04 240.97,54.04 241.34,54.04 241.72,54.04 242.1,54.04 242.48,54.04 242.85,54.04 243.23,54.04 243.61,54.04 243.99,54.04 244.36,54.04 244.74,54.04 245.12,54.04 245.5,54.04 245.87,54.04 246.25,54.04 246.63,54.03 247.01,54.03 247.38,54.03 247.76,54.02 248.14,54.02 248.51,54.02 248.89,54.01 249.27,54.01 249.65,54 250.02,54 250.4,53.99 250.78,53.99 251.16,53.99 251.53,53.98 251.91,53.98 252.29,53.98 252.67,53.97 253.04,53.97 253.42,53.97 253.8,53.97 254.18,53.97 254.55,53.97 254.93,53.97 255.31,53.97 255.69,53.97 256.06,53.97 256.44,53.97 256.82,53.97" stroke-dasharray="none" stroke="rgb(31,120,180)" stroke-width="0.75" opacity="1" stroke-opacity="1" fill="none"/>
          </g>
          <g id="Fig:densplot_01.xyplot.lines.group.2.panel.1.1.1">
            <polyline id="Fig:densplot_01.xyplot.lines.group.2.panel.1.1.1.1" points="61.79,54.07 62.18,54.12 62.56,54.2 62.95,54.3 63.33,54.44 63.72,54.63 64.11,54.88 64.49,55.21 64.88,55.63 65.26,56.15 65.65,56.81 66.04,57.61 66.42,58.56 66.81,59.67 67.19,60.93 67.58,62.34 67.96,63.9 68.35,65.56 68.74,67.32 69.12,69.13 69.51,70.92 69.89,72.65 70.28,74.27 70.67,75.73 71.05,76.98 71.44,77.99 71.82,78.71 72.21,79.13 72.6,79.21 72.98,78.99 73.37,78.49 73.75,77.74 74.14,76.79 74.52,75.66 74.91,74.41 75.3,73.08 75.68,71.71 76.07,70.35 76.45,69.03 76.84,67.78 77.23,66.61 77.61,65.53 78,64.56 78.38,63.69 78.77,62.92 79.16,62.25 79.54,61.67 79.93,61.18 80.31,60.76 80.7,60.39 81.09,60.08 81.47,59.82 81.86,59.59 82.24,59.4 82.63,59.23 83.01,59.08 83.4,58.96 83.79,58.84 84.17,58.74 84.56,58.66 84.94,58.58 85.33,58.5 85.72,58.44 86.1,58.38 86.49,58.32 86.87,58.27 87.26,58.22 87.65,58.17 88.03,58.13 88.42,58.09 88.8,58.05 89.19,58.01 89.57,57.97 89.96,57.93 90.35,57.89 90.73,57.85 91.12,57.82 91.5,57.78 91.89,57.75 92.28,57.72 92.66,57.68 93.05,57.65 93.43,57.62 93.82,57.59 94.21,57.56 94.59,57.53 94.98,57.51 95.36,57.48 95.75,57.46 96.14,57.43 96.52,57.41 96.91,57.39 97.29,57.37 97.68,57.35 98.06,57.33 98.45,57.31 98.84,57.29 99.22,57.27 99.61,57.25 99.99,57.24 100.38,57.22 100.77,57.21 101.15,57.19 101.54,57.18 101.92,57.16 102.31,57.15 102.7,57.13 103.08,57.12 103.47,57.1 103.85,57.09 104.24,57.07 104.62,57.06 105.01,57.04 105.4,57.02 105.78,57.01 106.17,56.99 106.55,56.97 106.94,56.96 107.33,56.94 107.71,56.92 108.1,56.91 108.48,56.9 108.87,56.88 109.26,56.87 109.64,56.86 110.03,56.85 110.41,56.84 110.8,56.83 111.18,56.82 111.57,56.81 111.96,56.8 112.34,56.79 112.73,56.78 113.11,56.77 113.5,56.76 113.89,56.76 114.27,56.75 114.66,56.74 115.04,56.73 115.43,56.72 115.82,56.71 116.2,56.7 116.59,56.69 116.97,56.68 117.36,56.67 117.75,56.66 118.13,56.65 118.52,56.64 118.9,56.63 119.29,56.62 119.67,56.61 120.06,56.6 120.45,56.59 120.83,56.58 121.22,56.57 121.6,56.56 121.99,56.56 122.38,56.55 122.76,56.54 123.15,56.53 123.53,56.52 123.92,56.51 124.31,56.5 124.69,56.49 125.08,56.48 125.46,56.47 125.85,56.46 126.23,56.45 126.62,56.44 127.01,56.42 127.39,56.41 127.78,56.4 128.16,56.38 128.55,56.37 128.94,56.35 129.32,56.34 129.71,56.33 130.09,56.31 130.48,56.3 130.87,56.29 131.25,56.28 131.64,56.27 132.02,56.26 132.41,56.25 132.8,56.24 133.18,56.23 133.57,56.23 133.95,56.22 134.34,56.21 134.72,56.21 135.11,56.2 135.5,56.2 135.88,56.19 136.27,56.19 136.65,56.18 137.04,56.17 137.43,56.16 137.81,56.16 138.2,56.15 138.58,56.14 138.97,56.13 139.36,56.11 139.74,56.1 140.13,56.09 140.51,56.08 140.9,56.07 141.28,56.05 141.67,56.04 142.06,56.03 142.44,56.02 142.83,56.01 143.21,55.99 143.6,55.98 143.99,55.97 144.37,55.96 144.76,55.95 145.14,55.94 145.53,55.93 145.92,55.92 146.3,55.91 146.69,55.9 147.07,55.9 147.46,55.89 147.84,55.88 148.23,55.87 148.62,55.86 149,55.85 149.39,55.84 149.77,55.83 150.16,55.82 150.55,55.8 150.93,55.79 151.32,55.78 151.7,55.77 152.09,55.76 152.48,55.75 152.86,55.74 153.25,55.72 153.63,55.71 154.02,55.7 154.41,55.69 154.79,55.68 155.18,55.67 155.56,55.65 155.95,55.64 156.33,55.63 156.72,55.62 157.11,55.61 157.49,55.6 157.88,55.59 158.26,55.58 158.65,55.57 159.04,55.56 159.42,55.55 159.81,55.54 160.19,55.53 160.58,55.52 160.97,55.51 161.35,55.5 161.74,55.49 162.12,55.48 162.51,55.47 162.89,55.46 163.28,55.45 163.67,55.44 164.05,55.42 164.44,55.41 164.82,55.4 165.21,55.39 165.6,55.37 165.98,55.36 166.37,55.35 166.75,55.33 167.14,55.32 167.53,55.31 167.91,55.29 168.3,55.28 168.68,55.27 169.07,55.26 169.46,55.24 169.84,55.23 170.23,55.22 170.61,55.21 171,55.19 171.38,55.18 171.77,55.17 172.16,55.16 172.54,55.15 172.93,55.14 173.31,55.13 173.7,55.12 174.09,55.11 174.47,55.1 174.86,55.09 175.24,55.08 175.63,55.07 176.02,55.07 176.4,55.06 176.79,55.05 177.17,55.05 177.56,55.04 177.94,55.03 178.33,55.02 178.72,55.02 179.1,55.01 179.49,55 179.87,54.99 180.26,54.98 180.65,54.98 181.03,54.97 181.42,54.96 181.8,54.95 182.19,54.94 182.58,54.93 182.96,54.92 183.35,54.92 183.73,54.91 184.12,54.9 184.5,54.89 184.89,54.88 185.28,54.88 185.66,54.87 186.05,54.86 186.43,54.85 186.82,54.85 187.21,54.84 187.59,54.83 187.98,54.82 188.36,54.82 188.75,54.81 189.14,54.8 189.52,54.8 189.91,54.79 190.29,54.79 190.68,54.78 191.07,54.77 191.45,54.77 191.84,54.76 192.22,54.75 192.61,54.75 192.99,54.74 193.38,54.74 193.77,54.73 194.15,54.72 194.54,54.72 194.92,54.71 195.31,54.71 195.7,54.7 196.08,54.69 196.47,54.69 196.85,54.68 197.24,54.68 197.63,54.67 198.01,54.67 198.4,54.66 198.78,54.66 199.17,54.65 199.55,54.65 199.94,54.65 200.33,54.64 200.71,54.64 201.1,54.64 201.48,54.63 201.87,54.63 202.26,54.63 202.64,54.62 203.03,54.62 203.41,54.62 203.8,54.61 204.19,54.61 204.57,54.6 204.96,54.6 205.34,54.59 205.73,54.58 206.12,54.57 206.5,54.57 206.89,54.56 207.27,54.55 207.66,54.54 208.04,54.53 208.43,54.52 208.82,54.51 209.2,54.5 209.59,54.48 209.97,54.47 210.36,54.46 210.75,54.45 211.13,54.44 211.52,54.43 211.9,54.42 212.29,54.41 212.68,54.4 213.06,54.39 213.45,54.38 213.83,54.37 214.22,54.37 214.6,54.36 214.99,54.35 215.38,54.34 215.76,54.34 216.15,54.33 216.53,54.33 216.92,54.32 217.31,54.32 217.69,54.31 218.08,54.31 218.46,54.31 218.85,54.3 219.24,54.3 219.62,54.3 220.01,54.29 220.39,54.29 220.78,54.29 221.16,54.29 221.55,54.28 221.94,54.28 222.32,54.28 222.71,54.27 223.09,54.27 223.48,54.27 223.87,54.26 224.25,54.26 224.64,54.25 225.02,54.25 225.41,54.25 225.8,54.24 226.18,54.24 226.57,54.23 226.95,54.23 227.34,54.22 227.73,54.22 228.11,54.21 228.5,54.21 228.88,54.21 229.27,54.2 229.65,54.2 230.04,54.19 230.43,54.19 230.81,54.19 231.2,54.18 231.58,54.18 231.97,54.18 232.36,54.18 232.74,54.17 233.13,54.17 233.51,54.17 233.9,54.17 234.29,54.16 234.67,54.16 235.06,54.16 235.44,54.16 235.83,54.16 236.21,54.15 236.6,54.15 236.99,54.15 237.37,54.15 237.76,54.15 238.14,54.15 238.53,54.14 238.92,54.14 239.3,54.14 239.69,54.14 240.07,54.14 240.46,54.14 240.85,54.14 241.23,54.14 241.62,54.13 242,54.13 242.39,54.13 242.78,54.13 243.16,54.13 243.55,54.12 243.93,54.12 244.32,54.12 244.7,54.12 245.09,54.11 245.48,54.11 245.86,54.1 246.25,54.1 246.63,54.09 247.02,54.09 247.41,54.08 247.79,54.08 248.18,54.07 248.56,54.06 248.95,54.06 249.34,54.05 249.72,54.04 250.11,54.03 250.49,54.03 250.88,54.02 251.26,54.01 251.65,54.01 252.04,54 252.42,53.99 252.81,53.99 253.19,53.99 253.58,53.98 253.97,53.98 254.35,53.98 254.74,53.97 255.12,53.97 255.51,53.97 255.9,53.97 256.28,53.97 256.67,53.97 257.05,53.97 257.44,53.97 257.82,53.97 258.21,53.97 258.6,53.97 258.98,53.97" stroke-dasharray="none" stroke="rgb(31,120,180)" stroke-width="0.75" opacity="1" stroke-opacity="1" fill="none"/>
          </g>
          <g id="Fig:densplot_01.xyplot.lines.group.3.panel.1.1.1">
            <polyline id="Fig:densplot_01.xyplot.lines.group.3.panel.1.1.1.1" points="69.02,54.32 69.38,55.83 69.73,61.21 70.09,74.97 70.45,100.03 70.81,131.69 71.16,156.89 71.52,163.74 71.88,151.81 72.24,130.99 72.59,111.69 72.95,98.33 73.31,90.3 73.67,85.51 74.02,82.43 74.38,80.19 74.74,78.38 75.1,76.76 75.46,75.19 75.81,73.65 76.17,72.19 76.53,70.92 76.89,69.86 77.24,68.99 77.6,68.24 77.96,67.56 78.32,66.93 78.67,66.32 79.03,65.74 79.39,65.22 79.75,64.8 80.1,64.44 80.46,64.09 80.82,63.72 81.18,63.34 81.53,62.99 81.89,62.68 82.25,62.37 82.61,62.04 82.96,61.66 83.32,61.28 83.68,60.95 84.04,60.68 84.4,60.45 84.75,60.24 85.11,60.03 85.47,59.82 85.83,59.61 86.18,59.4 86.54,59.19 86.9,59 87.26,58.83 87.61,58.66 87.97,58.5 88.33,58.35 88.69,58.23 89.04,58.11 89.4,57.98 89.76,57.84 90.12,57.69 90.47,57.56 90.83,57.47 91.19,57.4 91.55,57.33 91.91,57.24 92.26,57.15 92.62,57.04 92.98,56.94 93.34,56.85 93.69,56.76 94.05,56.67 94.41,56.59 94.77,56.54 95.12,56.5 95.48,56.46 95.84,56.39 96.2,56.31 96.55,56.24 96.91,56.18 97.27,56.15 97.63,56.12 97.98,56.1 98.34,56.06 98.7,56.01 99.06,55.96 99.41,55.92 99.77,55.89 100.13,55.85 100.49,55.8 100.85,55.74 101.2,55.67 101.56,55.62 101.92,55.58 102.28,55.55 102.63,55.53 102.99,55.52 103.35,55.51 103.71,55.5 104.06,55.49 104.42,55.48 104.78,55.45 105.14,55.41 105.49,55.35 105.85,55.29 106.21,55.24 106.57,55.21 106.92,55.21 107.28,55.21 107.64,55.21 108,55.21 108.35,55.19 108.71,55.16 109.07,55.14 109.43,55.12 109.79,55.12 110.14,55.11 110.5,55.09 110.86,55.06 111.22,55.03 111.57,55.02 111.93,55.01 112.29,55.01 112.65,55 113,54.99 113.36,54.97 113.72,54.95 114.08,54.93 114.43,54.92 114.79,54.9 115.15,54.89 115.51,54.87 115.86,54.86 116.22,54.84 116.58,54.81 116.94,54.8 117.3,54.79 117.65,54.8 118.01,54.81 118.37,54.82 118.73,54.81 119.08,54.79 119.44,54.76 119.8,54.73 120.16,54.72 120.51,54.72 120.87,54.71 121.23,54.7 121.59,54.69 121.94,54.69 122.3,54.71 122.66,54.72 123.02,54.74 123.37,54.75 123.73,54.75 124.09,54.75 124.45,54.72 124.8,54.69 125.16,54.65 125.52,54.63 125.88,54.61 126.24,54.61 126.59,54.59 126.95,54.58 127.31,54.56 127.67,54.55 128.02,54.55 128.38,54.56 128.74,54.57 129.1,54.57 129.45,54.56 129.81,54.55 130.17,54.53 130.53,54.53 130.88,54.53 131.24,54.54 131.6,54.54 131.96,54.54 132.31,54.53 132.67,54.52 133.03,54.51 133.39,54.51 133.74,54.52 134.1,54.52 134.46,54.5 134.82,54.48 135.18,54.46 135.53,54.46 135.89,54.45 136.25,54.46 136.61,54.46 136.96,54.46 137.32,54.46 137.68,54.44 138.04,54.44 138.39,54.43 138.75,54.43 139.11,54.43 139.47,54.44 139.82,54.44 140.18,54.45 140.54,54.44 140.9,54.44 141.25,54.42 141.61,54.4 141.97,54.39 142.33,54.37 142.69,54.36 143.04,54.35 143.4,54.35 143.76,54.36 144.12,54.37 144.47,54.38 144.83,54.38 145.19,54.37 145.55,54.36 145.9,54.34 146.26,54.33 146.62,54.33 146.98,54.34 147.33,54.35 147.69,54.35 148.05,54.35 148.41,54.33 148.76,54.31 149.12,54.3 149.48,54.28 149.84,54.28 150.19,54.28 150.55,54.28 150.91,54.29 151.27,54.3 151.63,54.3 151.98,54.3 152.34,54.29 152.7,54.29 153.06,54.29 153.41,54.3 153.77,54.31 154.13,54.31 154.49,54.31 154.84,54.31 155.2,54.3 155.56,54.29 155.92,54.28 156.27,54.28 156.63,54.27 156.99,54.27 157.35,54.27 157.7,54.27 158.06,54.26 158.42,54.25 158.78,54.24 159.13,54.24 159.49,54.24 159.85,54.23 160.21,54.23 160.57,54.23 160.92,54.23 161.28,54.24 161.64,54.24 162,54.23 162.35,54.23 162.71,54.22 163.07,54.23 163.43,54.23 163.78,54.24 164.14,54.24 164.5,54.23 164.86,54.22 165.21,54.21 165.57,54.2 165.93,54.21 166.29,54.22 166.64,54.24 167,54.26 167.36,54.26 167.72,54.25 168.08,54.25 168.43,54.23 168.79,54.22 169.15,54.21 169.51,54.21 169.86,54.2 170.22,54.19 170.58,54.19 170.94,54.19 171.29,54.18 171.65,54.19 172.01,54.19 172.37,54.19 172.72,54.19 173.08,54.19 173.44,54.2 173.8,54.2 174.15,54.2 174.51,54.19 174.87,54.18 175.23,54.17 175.58,54.17 175.94,54.18 176.3,54.18 176.66,54.18 177.02,54.17 177.37,54.17 177.73,54.17 178.09,54.17 178.45,54.18 178.8,54.18 179.16,54.18 179.52,54.18 179.88,54.19 180.23,54.18 180.59,54.17 180.95,54.16 181.31,54.14 181.66,54.13 182.02,54.13 182.38,54.13 182.74,54.14 183.09,54.14 183.45,54.13 183.81,54.13 184.17,54.14 184.52,54.15 184.88,54.16 185.24,54.17 185.6,54.18 185.96,54.19 186.31,54.19 186.67,54.19 187.03,54.18 187.39,54.18 187.74,54.18 188.1,54.18 188.46,54.18 188.82,54.18 189.17,54.17 189.53,54.16 189.89,54.16 190.25,54.16 190.6,54.16 190.96,54.17 191.32,54.17 191.68,54.17 192.03,54.18 192.39,54.18 192.75,54.19 193.11,54.2 193.47,54.21 193.82,54.22 194.18,54.23 194.54,54.24 194.9,54.25 195.25,54.26 195.61,54.27 195.97,54.27 196.33,54.26 196.68,54.26 197.04,54.27 197.4,54.28 197.76,54.29 198.11,54.29 198.47,54.28 198.83,54.28 199.19,54.28 199.54,54.27 199.9,54.26 200.26,54.26 200.62,54.25 200.97,54.24 201.33,54.24 201.69,54.24 202.05,54.25 202.41,54.26 202.76,54.26 203.12,54.26 203.48,54.25 203.84,54.24 204.19,54.22 204.55,54.21 204.91,54.2 205.27,54.2 205.62,54.21 205.98,54.22 206.34,54.23 206.7,54.23 207.05,54.21 207.41,54.2 207.77,54.2 208.13,54.19 208.48,54.18 208.84,54.17 209.2,54.15 209.56,54.14 209.91,54.13 210.27,54.13 210.63,54.13 210.99,54.13 211.35,54.13 211.7,54.12 212.06,54.12 212.42,54.11 212.78,54.1 213.13,54.09 213.49,54.08 213.85,54.08 214.21,54.07 214.56,54.08 214.92,54.08 215.28,54.09 215.64,54.1 215.99,54.09 216.35,54.09 216.71,54.08 217.07,54.07 217.42,54.06 217.78,54.05 218.14,54.05 218.5,54.05 218.86,54.06 219.21,54.06 219.57,54.07 219.93,54.07 220.29,54.07 220.64,54.07 221,54.07 221.36,54.07 221.72,54.07 222.07,54.07 222.43,54.07 222.79,54.07 223.15,54.07 223.5,54.07 223.86,54.08 224.22,54.09 224.58,54.09 224.93,54.09 225.29,54.09 225.65,54.08 226.01,54.07 226.36,54.06 226.72,54.06 227.08,54.05 227.44,54.05 227.8,54.05 228.15,54.05 228.51,54.06 228.87,54.06 229.23,54.07 229.58,54.07 229.94,54.07 230.3,54.07 230.66,54.06 231.01,54.06 231.37,54.05 231.73,54.04 232.09,54.04 232.44,54.04 232.8,54.04 233.16,54.04 233.52,54.04 233.87,54.04 234.23,54.04 234.59,54.03 234.95,54.03 235.3,54.03 235.66,54.03 236.02,54.03 236.38,54.04 236.74,54.04 237.09,54.05 237.45,54.05 237.81,54.05 238.17,54.05 238.52,54.05 238.88,54.04 239.24,54.04 239.6,54.04 239.95,54.04 240.31,54.05 240.67,54.05 241.03,54.05 241.38,54.05 241.74,54.05 242.1,54.06 242.46,54.06 242.81,54.06 243.17,54.06 243.53,54.05 243.89,54.05 244.25,54.05 244.6,54.04 244.96,54.04 245.32,54.03 245.68,54.03 246.03,54.03 246.39,54.02 246.75,54.02 247.11,54.03 247.46,54.03 247.82,54.03 248.18,54.03 248.54,54.03 248.89,54.03 249.25,54.02 249.61,54.01 249.97,54 250.32,53.98 250.68,53.97 251.04,53.97 251.4,53.97 251.75,53.97" stroke-dasharray="none" stroke="rgb(31,120,180)" stroke-width="0.75" opacity="1" stroke-opacity="1" fill="none"/>
          </g>
          <g id="Fig:densplot_01.xyplot.lines.group.4.panel.1.1.1">
            <polyline id="Fig:densplot_01.xyplot.lines.group.4.panel.1.1.1.1" points="69.8,54.49 70.15,61.95 70.51,101.56 70.86,177.07 71.22,222.22 71.57,202.59 71.92,159.64 72.28,129.15 72.63,112.47 72.99,102.62 73.34,95.98 73.7,90.87 74.05,86.68 74.4,83.3 74.76,80.65 75.11,78.63 75.47,76.95 75.82,75.24 76.17,73.31 76.53,71.4 76.88,69.77 77.24,68.43 77.59,67.25 77.95,66.21 78.3,65.25 78.65,64.33 79.01,63.52 79.36,62.88 79.72,62.38 80.07,61.94 80.42,61.49 80.78,61.02 81.13,60.6 81.49,60.21 81.84,59.87 82.19,59.59 82.55,59.31 82.9,59.03 83.26,58.79 83.61,58.6 83.97,58.47 84.32,58.32 84.67,58.05 85.03,57.81 85.38,57.63 85.74,57.53 86.09,57.5 86.44,57.4 86.8,57.2 87.15,57.03 87.51,56.93 87.86,56.85 88.21,56.79 88.57,56.72 88.92,56.62 89.28,56.53 89.63,56.4 89.99,56.31 90.34,56.26 90.69,56.17 91.05,56.1 91.4,56.1 91.76,56.09 92.11,56.03 92.46,55.96 92.82,55.89 93.17,55.81 93.53,55.78 93.88,55.74 94.23,55.67 94.59,55.64 94.94,55.64 95.3,55.64 95.65,55.62 96.01,55.58 96.36,55.52 96.71,55.46 97.07,55.39 97.42,55.33 97.78,55.27 98.13,55.25 98.48,55.25 98.84,55.27 99.19,55.27 99.55,55.25 99.9,55.22 100.25,55.18 100.61,55.16 100.96,55.16 101.32,55.17 101.67,55.15 102.03,55.09 102.38,55.03 102.73,55 103.09,54.97 103.44,54.94 103.8,54.9 104.15,54.9 104.5,54.94 104.86,54.94 105.21,54.91 105.57,54.89 105.92,54.89 106.28,54.9 106.63,54.91 106.98,54.91 107.34,54.87 107.69,54.82 108.05,54.8 108.4,54.81 108.75,54.78 109.11,54.73 109.46,54.69 109.82,54.71 110.17,54.73 110.52,54.71 110.88,54.69 111.23,54.68 111.59,54.67 111.94,54.66 112.3,54.63 112.65,54.61 113,54.6 113.36,54.61 113.71,54.63 114.07,54.6 114.42,54.57 114.77,54.56 115.13,54.55 115.48,54.54 115.84,54.54 116.19,54.56 116.54,54.58 116.9,54.57 117.25,54.57 117.61,54.58 117.96,54.54 118.32,54.51 118.67,54.51 119.02,54.5 119.38,54.48 119.73,54.46 120.09,54.46 120.44,54.48 120.79,54.48 121.15,54.47 121.5,54.46 121.86,54.44 122.21,54.44 122.56,54.44 122.92,54.43 123.27,54.41 123.63,54.42 123.98,54.42 124.34,54.4 124.69,54.38 125.04,54.39 125.4,54.4 125.75,54.38 126.11,54.37 126.46,54.39 126.81,54.42 127.17,54.44 127.52,54.44 127.88,54.43 128.23,54.42 128.58,54.39 128.94,54.36 129.29,54.35 129.65,54.34 130,54.33 130.36,54.32 130.71,54.32 131.06,54.33 131.42,54.33 131.77,54.33 132.13,54.32 132.48,54.31 132.83,54.3 133.19,54.29 133.54,54.3 133.9,54.31 134.25,54.29 134.6,54.28 134.96,54.28 135.31,54.28 135.67,54.27 136.02,54.27 136.38,54.26 136.73,54.26 137.08,54.28 137.44,54.29 137.79,54.29 138.15,54.29 138.5,54.28 138.85,54.26 139.21,54.24 139.56,54.22 139.92,54.21 140.27,54.23 140.63,54.23 140.98,54.23 141.33,54.22 141.69,54.23 142.04,54.26 142.4,54.26 142.75,54.25 143.1,54.23 143.46,54.21 143.81,54.21 144.17,54.22 144.52,54.22 144.87,54.2 145.23,54.17 145.58,54.16 145.94,54.16 146.29,54.18 146.65,54.21 147,54.23 147.35,54.24 147.71,54.24 148.06,54.23 148.42,54.23 148.77,54.23 149.12,54.23 149.48,54.21 149.83,54.2 150.19,54.18 150.54,54.18 150.89,54.18 151.25,54.18 151.6,54.18 151.96,54.18 152.31,54.18 152.67,54.16 153.02,54.15 153.37,54.15 153.73,54.17 154.08,54.17 154.44,54.17 154.79,54.16 155.14,54.17 155.5,54.17 155.85,54.17 156.21,54.16 156.56,54.15 156.91,54.15 157.27,54.16 157.62,54.16 157.98,54.16 158.33,54.15 158.69,54.14 159.04,54.12 159.39,54.13 159.75,54.15 160.1,54.15 160.46,54.14 160.81,54.14 161.16,54.14 161.52,54.14 161.87,54.12 162.23,54.11 162.58,54.13 162.93,54.16 163.29,54.17 163.64,54.15 164,54.14 164.35,54.12 164.71,54.12 165.06,54.12 165.41,54.12 165.77,54.12 166.12,54.12 166.48,54.14 166.83,54.14 167.18,54.13 167.54,54.13 167.89,54.12 168.25,54.12 168.6,54.11 168.96,54.1 169.31,54.09 169.66,54.09 170.02,54.1 170.37,54.11 170.73,54.11 171.08,54.1 171.43,54.09 171.79,54.09 172.14,54.09 172.5,54.09 172.85,54.1 173.2,54.1 173.56,54.08 173.91,54.09 174.27,54.1 174.62,54.11 174.98,54.1 175.33,54.09 175.68,54.09 176.04,54.1 176.39,54.11 176.75,54.1 177.1,54.1 177.45,54.09 177.81,54.09 178.16,54.09 178.52,54.09 178.87,54.09 179.22,54.09 179.58,54.09 179.93,54.09 180.29,54.09 180.64,54.09 181,54.09 181.35,54.08 181.7,54.07 182.06,54.08 182.41,54.09 182.77,54.09 183.12,54.08 183.47,54.08 183.83,54.09 184.18,54.07 184.54,54.05 184.89,54.05 185.24,54.08 185.6,54.09 185.95,54.09 186.31,54.1 186.66,54.1 187.02,54.09 187.37,54.08 187.72,54.07 188.08,54.07 188.43,54.07 188.79,54.07 189.14,54.06 189.49,54.06 189.85,54.06 190.2,54.06 190.56,54.07 190.91,54.07 191.26,54.08 191.62,54.09 191.97,54.08 192.33,54.08 192.68,54.08 193.04,54.08 193.39,54.07 193.74,54.07 194.1,54.07 194.45,54.08 194.81,54.07 195.16,54.07 195.51,54.06 195.87,54.07 196.22,54.06 196.58,54.05 196.93,54.06 197.28,54.07 197.64,54.07 197.99,54.06 198.35,54.04 198.7,54.03 199.06,54.04 199.41,54.04 199.76,54.04 200.12,54.04 200.47,54.04 200.83,54.04 201.18,54.04 201.53,54.04 201.89,54.05 202.24,54.07 202.6,54.08 202.95,54.08 203.31,54.08 203.66,54.08 204.01,54.07 204.37,54.06 204.72,54.06 205.08,54.06 205.43,54.05 205.78,54.04 206.14,54.04 206.49,54.05 206.85,54.04 207.2,54.04 207.55,54.04 207.91,54.04 208.26,54.03 208.62,54.02 208.97,54.03 209.33,54.03 209.68,54.04 210.03,54.04 210.39,54.04 210.74,54.04 211.1,54.04 211.45,54.06 211.8,54.07 212.16,54.07 212.51,54.06 212.87,54.05 213.22,54.04 213.57,54.04 213.93,54.04 214.28,54.05 214.64,54.04 214.99,54.03 215.35,54.03 215.7,54.03 216.05,54.03 216.41,54.03 216.76,54.02 217.12,54.02 217.47,54.03 217.82,54.03 218.18,54.03 218.53,54.03 218.89,54.05 219.24,54.07 219.59,54.07 219.95,54.06 220.3,54.07 220.66,54.08 221.01,54.09 221.37,54.11 221.72,54.11 222.07,54.1 222.43,54.09 222.78,54.1 223.14,54.13 223.49,54.15 223.84,54.15 224.2,54.14 224.55,54.14 224.91,54.15 225.26,54.16 225.61,54.16 225.97,54.15 226.32,54.15 226.68,54.16 227.03,54.16 227.39,54.14 227.74,54.12 228.09,54.11 228.45,54.11 228.8,54.11 229.16,54.11 229.51,54.11 229.86,54.11 230.22,54.12 230.57,54.13 230.93,54.13 231.28,54.13 231.64,54.12 231.99,54.12 232.34,54.12 232.7,54.12 233.05,54.12 233.41,54.14 233.76,54.15 234.11,54.17 234.47,54.19 234.82,54.19 235.18,54.18 235.53,54.16 235.88,54.17 236.24,54.17 236.59,54.17 236.95,54.17 237.3,54.17 237.66,54.17 238.01,54.17 238.36,54.16 238.72,54.14 239.07,54.12 239.43,54.12 239.78,54.14 240.13,54.14 240.49,54.12 240.84,54.1 241.2,54.09 241.55,54.08 241.9,54.07 242.26,54.08 242.61,54.08 242.97,54.06 243.32,54.05 243.68,54.06 244.03,54.07 244.38,54.07 244.74,54.05 245.09,54.04 245.45,54.02 245.8,54.01 246.15,54.01 246.51,54.02 246.86,54.02 247.22,54.02 247.57,54.02 247.92,54.02 248.28,54.02 248.63,54.01 248.99,54.01 249.34,54.01 249.7,53.99 250.05,53.98 250.4,53.97 250.76,53.97" stroke-dasharray="none" stroke="rgb(31,120,180)" stroke-width="0.75" opacity="1" stroke-opacity="1" fill="none"/>
          </g>
          <g id="Fig:densplot_01.xyplot.lines.group.5.panel.1.1.1">
            <polyline id="Fig:densplot_01.xyplot.lines.group.5.panel.1.1.1.1" points="61.61,54.06 62,54.1 62.38,54.16 62.77,54.24 63.16,54.36 63.54,54.52 63.93,54.73 64.32,55 64.7,55.35 65.09,55.79 65.47,56.33 65.86,56.98 66.25,57.76 66.63,58.68 67.02,59.74 67.41,60.94 67.79,62.27 68.18,63.7 68.57,65.21 68.95,66.79 69.34,68.38 69.73,69.96 70.11,71.48 70.5,72.87 70.89,74.11 71.27,75.16 71.66,75.98 72.05,76.56 72.43,76.89 72.82,76.96 73.21,76.78 73.59,76.35 73.98,75.7 74.37,74.88 74.75,73.91 75.14,72.85 75.53,71.72 75.91,70.56 76.3,69.39 76.69,68.25 77.07,67.15 77.46,66.13 77.85,65.18 78.23,64.3 78.62,63.51 79.01,62.8 79.39,62.17 79.78,61.62 80.17,61.13 80.55,60.7 80.94,60.34 81.33,60.02 81.71,59.74 82.1,59.5 82.49,59.29 82.87,59.11 83.26,58.95 83.65,58.81 84.03,58.69 84.42,58.58 84.81,58.48 85.19,58.4 85.58,58.32 85.96,58.25 86.35,58.18 86.74,58.12 87.12,58.06 87.51,58.01 87.9,57.97 88.28,57.92 88.67,57.88 89.06,57.85 89.44,57.81 89.83,57.78 90.22,57.74 90.6,57.71 90.99,57.69 91.38,57.66 91.76,57.64 92.15,57.61 92.54,57.59 92.92,57.57 93.31,57.55 93.7,57.53 94.08,57.51 94.47,57.49 94.86,57.48 95.24,57.46 95.63,57.44 96.02,57.43 96.4,57.41 96.79,57.4 97.18,57.38 97.56,57.36 97.95,57.35 98.34,57.33 98.72,57.32 99.11,57.3 99.5,57.28 99.88,57.27 100.27,57.25 100.66,57.24 101.04,57.22 101.43,57.21 101.82,57.19 102.2,57.18 102.59,57.17 102.98,57.16 103.36,57.14 103.75,57.13 104.14,57.12 104.52,57.11 104.91,57.1 105.3,57.09 105.68,57.08 106.07,57.07 106.46,57.06 106.84,57.05 107.23,57.04 107.61,57.03 108,57.02 108.39,57.01 108.77,57 109.16,56.99 109.55,56.98 109.93,56.97 110.32,56.96 110.71,56.95 111.09,56.94 111.48,56.93 111.87,56.92 112.25,56.91 112.64,56.9 113.03,56.89 113.41,56.88 113.8,56.87 114.19,56.86 114.57,56.85 114.96,56.84 115.35,56.83 115.73,56.83 116.12,56.82 116.51,56.81 116.89,56.81 117.28,56.8 117.67,56.8 118.05,56.79 118.44,56.79 118.83,56.78 119.21,56.78 119.6,56.77 119.99,56.76 120.37,56.76 120.76,56.75 121.15,56.74 121.53,56.73 121.92,56.72 122.31,56.71 122.69,56.7 123.08,56.69 123.47,56.68 123.85,56.67 124.24,56.66 124.63,56.64 125.01,56.63 125.4,56.62 125.79,56.61 126.17,56.6 126.56,56.59 126.95,56.58 127.33,56.57 127.72,56.56 128.1,56.55 128.49,56.54 128.88,56.53 129.26,56.52 129.65,56.51 130.04,56.5 130.42,56.49 130.81,56.47 131.2,56.46 131.58,56.45 131.97,56.44 132.36,56.43 132.74,56.42 133.13,56.41 133.52,56.4 133.9,56.39 134.29,56.38 134.68,56.37 135.06,56.36 135.45,56.35 135.84,56.35 136.22,56.34 136.61,56.33 137,56.33 137.38,56.32 137.77,56.31 138.16,56.31 138.54,56.3 138.93,56.29 139.32,56.29 139.7,56.28 140.09,56.27 140.48,56.26 140.86,56.25 141.25,56.24 141.64,56.23 142.02,56.22 142.41,56.21 142.8,56.2 143.18,56.19 143.57,56.18 143.96,56.17 144.34,56.16 144.73,56.15 145.12,56.14 145.5,56.13 145.89,56.12 146.28,56.11 146.66,56.1 147.05,56.09 147.44,56.08 147.82,56.06 148.21,56.05 148.6,56.04 148.98,56.03 149.37,56.02 149.75,56.01 150.14,56 150.53,55.99 150.91,55.98 151.3,55.97 151.69,55.96 152.07,55.95 152.46,55.94 152.85,55.93 153.23,55.92 153.62,55.91 154.01,55.9 154.39,55.9 154.78,55.89 155.17,55.88 155.55,55.88 155.94,55.87 156.33,55.87 156.71,55.86 157.1,55.85 157.49,55.85 157.87,55.84 158.26,55.83 158.65,55.82 159.03,55.81 159.42,55.8 159.81,55.79 160.19,55.77 160.58,55.76 160.97,55.75 161.35,55.73 161.74,55.71 162.13,55.7 162.51,55.68 162.9,55.66 163.29,55.64 163.67,55.63 164.06,55.61 164.45,55.59 164.83,55.58 165.22,55.56 165.61,55.55 165.99,55.53 166.38,55.52 166.77,55.51 167.15,55.5 167.54,55.49 167.93,55.47 168.31,55.46 168.7,55.46 169.09,55.45 169.47,55.44 169.86,55.43 170.25,55.42 170.63,55.41 171.02,55.4 171.4,55.39 171.79,55.38 172.18,55.37 172.56,55.35 172.95,55.34 173.34,55.33 173.72,55.32 174.11,55.3 174.5,55.29 174.88,55.28 175.27,55.26 175.66,55.25 176.04,55.24 176.43,55.22 176.82,55.21 177.2,55.19 177.59,55.18 177.98,55.17 178.36,55.15 178.75,55.14 179.14,55.13 179.52,55.12 179.91,55.11 180.3,55.09 180.68,55.08 181.07,55.07 181.46,55.06 181.84,55.05 182.23,55.04 182.62,55.03 183,55.03 183.39,55.02 183.78,55.01 184.16,55 184.55,54.99 184.94,54.98 185.32,54.97 185.71,54.96 186.1,54.96 186.48,54.95 186.87,54.94 187.26,54.93 187.64,54.92 188.03,54.91 188.42,54.91 188.8,54.9 189.19,54.89 189.58,54.88 189.96,54.88 190.35,54.87 190.74,54.87 191.12,54.86 191.51,54.85 191.89,54.85 192.28,54.85 192.67,54.84 193.05,54.84 193.44,54.83 193.83,54.83 194.21,54.83 194.6,54.83 194.99,54.82 195.37,54.82 195.76,54.82 196.15,54.82 196.53,54.82 196.92,54.81 197.31,54.81 197.69,54.81 198.08,54.81 198.47,54.8 198.85,54.8 199.24,54.79 199.63,54.78 200.01,54.77 200.4,54.77 200.79,54.76 201.17,54.74 201.56,54.73 201.95,54.72 202.33,54.71 202.72,54.69 203.11,54.68 203.49,54.66 203.88,54.65 204.27,54.63 204.65,54.61 205.04,54.6 205.43,54.58 205.81,54.57 206.2,54.55 206.59,54.54 206.97,54.53 207.36,54.51 207.75,54.5 208.13,54.49 208.52,54.48 208.91,54.47 209.29,54.46 209.68,54.45 210.07,54.45 210.45,54.44 210.84,54.43 211.23,54.43 211.61,54.42 212,54.41 212.39,54.41 212.77,54.4 213.16,54.4 213.54,54.39 213.93,54.38 214.32,54.38 214.7,54.37 215.09,54.36 215.48,54.36 215.86,54.35 216.25,54.35 216.64,54.34 217.02,54.33 217.41,54.33 217.8,54.32 218.18,54.32 218.57,54.31 218.96,54.31 219.34,54.31 219.73,54.3 220.12,54.3 220.5,54.29 220.89,54.29 221.28,54.29 221.66,54.28 222.05,54.28 222.44,54.28 222.82,54.27 223.21,54.27 223.6,54.27 223.98,54.26 224.37,54.26 224.76,54.26 225.14,54.25 225.53,54.25 225.92,54.25 226.3,54.24 226.69,54.24 227.08,54.24 227.46,54.23 227.85,54.23 228.24,54.23 228.62,54.22 229.01,54.22 229.4,54.22 229.78,54.21 230.17,54.21 230.56,54.21 230.94,54.2 231.33,54.2 231.72,54.19 232.1,54.19 232.49,54.19 232.88,54.18 233.26,54.18 233.65,54.18 234.03,54.18 234.42,54.17 234.81,54.17 235.19,54.17 235.58,54.17 235.97,54.16 236.35,54.16 236.74,54.16 237.13,54.16 237.51,54.16 237.9,54.16 238.29,54.15 238.67,54.15 239.06,54.15 239.45,54.15 239.83,54.15 240.22,54.15 240.61,54.15 240.99,54.14 241.38,54.14 241.77,54.14 242.15,54.14 242.54,54.14 242.93,54.13 243.31,54.13 243.7,54.13 244.09,54.13 244.47,54.12 244.86,54.12 245.25,54.12 245.63,54.11 246.02,54.11 246.41,54.1 246.79,54.1 247.18,54.09 247.57,54.09 247.95,54.08 248.34,54.07 248.73,54.07 249.11,54.06 249.5,54.05 249.89,54.04 250.27,54.04 250.66,54.03 251.05,54.02 251.43,54.01 251.82,54.01 252.21,54 252.59,54 252.98,53.99 253.37,53.99 253.75,53.98 254.14,53.98 254.53,53.98 254.91,53.97 255.3,53.97 255.68,53.97 256.07,53.97 256.46,53.97 256.84,53.97 257.23,53.97 257.62,53.97 258,53.97 258.39,53.97 258.78,53.97 259.16,53.97" stroke-dasharray="none" stroke="rgb(31,120,180)" stroke-width="0.75" opacity="1" stroke-opacity="1" fill="none"/>
          </g>
          <g id="Fig:densplot_01.xyplot.lines.group.6.panel.1.1.1">
            <polyline id="Fig:densplot_01.xyplot.lines.group.6.panel.1.1.1.1" points="59,54.04 59.4,54.07 59.79,54.1 60.19,54.15 60.59,54.21 60.98,54.29 61.38,54.39 61.78,54.52 62.18,54.68 62.57,54.87 62.97,55.11 63.37,55.39 63.76,55.72 64.16,56.13 64.56,56.59 64.95,57.12 65.35,57.73 65.75,58.4 66.14,59.15 66.54,59.97 66.94,60.86 67.33,61.82 67.73,62.82 68.13,63.86 68.53,64.91 68.92,65.98 69.32,67.04 69.72,68.07 70.11,69.04 70.51,69.94 70.91,70.75 71.3,71.46 71.7,72.05 72.1,72.52 72.49,72.85 72.89,73.02 73.29,73.05 73.68,72.94 74.08,72.71 74.48,72.35 74.88,71.88 75.27,71.32 75.67,70.67 76.07,69.95 76.46,69.18 76.86,68.39 77.26,67.58 77.65,66.77 78.05,65.97 78.45,65.18 78.84,64.44 79.24,63.72 79.64,63.05 80.03,62.43 80.43,61.85 80.83,61.32 81.23,60.83 81.62,60.39 82.02,60 82.42,59.65 82.81,59.33 83.21,59.05 83.61,58.8 84,58.57 84.4,58.38 84.8,58.2 85.19,58.05 85.59,57.91 85.99,57.79 86.38,57.68 86.78,57.58 87.18,57.49 87.58,57.41 87.97,57.34 88.37,57.28 88.77,57.22 89.16,57.16 89.56,57.11 89.96,57.06 90.35,57.02 90.75,56.98 91.15,56.94 91.54,56.91 91.94,56.88 92.34,56.85 92.73,56.82 93.13,56.79 93.53,56.76 93.93,56.74 94.32,56.72 94.72,56.7 95.12,56.67 95.51,56.66 95.91,56.64 96.31,56.62 96.7,56.6 97.1,56.59 97.5,56.57 97.89,56.56 98.29,56.54 98.69,56.53 99.08,56.51 99.48,56.5 99.88,56.48 100.28,56.47 100.67,56.46 101.07,56.44 101.47,56.43 101.86,56.41 102.26,56.4 102.66,56.39 103.05,56.37 103.45,56.36 103.85,56.35 104.24,56.33 104.64,56.32 105.04,56.31 105.43,56.3 105.83,56.29 106.23,56.27 106.63,56.26 107.02,56.25 107.42,56.24 107.82,56.24 108.21,56.23 108.61,56.22 109.01,56.21 109.4,56.2 109.8,56.2 110.2,56.19 110.59,56.18 110.99,56.18 111.39,56.17 111.78,56.16 112.18,56.15 112.58,56.15 112.98,56.14 113.37,56.13 113.77,56.13 114.17,56.12 114.56,56.11 114.96,56.1 115.36,56.1 115.75,56.09 116.15,56.08 116.55,56.08 116.94,56.07 117.34,56.06 117.74,56.06 118.13,56.05 118.53,56.04 118.93,56.04 119.33,56.03 119.72,56.02 120.12,56.02 120.52,56.01 120.91,56.01 121.31,56 121.71,56 122.1,55.99 122.5,55.98 122.9,55.98 123.29,55.97 123.69,55.97 124.09,55.96 124.48,55.96 124.88,55.95 125.28,55.95 125.68,55.94 126.07,55.94 126.47,55.93 126.87,55.93 127.26,55.92 127.66,55.92 128.06,55.91 128.45,55.91 128.85,55.9 129.25,55.9 129.64,55.9 130.04,55.89 130.44,55.89 130.83,55.88 131.23,55.88 131.63,55.88 132.03,55.87 132.42,55.87 132.82,55.87 133.22,55.86 133.61,55.86 134.01,55.86 134.41,55.85 134.8,55.85 135.2,55.84 135.6,55.84 135.99,55.83 136.39,55.83 136.79,55.83 137.18,55.82 137.58,55.82 137.98,55.81 138.38,55.81 138.77,55.81 139.17,55.8 139.57,55.8 139.96,55.8 140.36,55.79 140.76,55.79 141.15,55.79 141.55,55.79 141.95,55.79 142.34,55.79 142.74,55.78 143.14,55.78 143.53,55.78 143.93,55.78 144.33,55.78 144.73,55.78 145.12,55.78 145.52,55.78 145.92,55.77 146.31,55.77 146.71,55.77 147.11,55.77 147.5,55.77 147.9,55.76 148.3,55.76 148.69,55.76 149.09,55.75 149.49,55.75 149.88,55.75 150.28,55.74 150.68,55.74 151.08,55.74 151.47,55.73 151.87,55.73 152.27,55.72 152.66,55.72 153.06,55.71 153.46,55.71 153.85,55.7 154.25,55.7 154.65,55.69 155.04,55.69 155.44,55.69 155.84,55.68 156.23,55.68 156.63,55.67 157.03,55.67 157.43,55.66 157.82,55.66 158.22,55.65 158.62,55.65 159.01,55.65 159.41,55.64 159.81,55.64 160.2,55.63 160.6,55.63 161,55.62 161.39,55.62 161.79,55.62 162.19,55.61 162.58,55.61 162.98,55.6 163.38,55.6 163.78,55.6 164.17,55.59 164.57,55.59 164.97,55.59 165.36,55.58 165.76,55.58 166.16,55.58 166.55,55.57 166.95,55.57 167.35,55.57 167.74,55.57 168.14,55.56 168.54,55.56 168.93,55.56 169.33,55.56 169.73,55.56 170.13,55.56 170.52,55.56 170.92,55.55 171.32,55.55 171.71,55.55 172.11,55.55 172.51,55.55 172.9,55.55 173.3,55.54 173.7,55.54 174.09,55.54 174.49,55.54 174.89,55.54 175.28,55.53 175.68,55.53 176.08,55.53 176.48,55.53 176.87,55.52 177.27,55.52 177.67,55.52 178.06,55.51 178.46,55.51 178.86,55.51 179.25,55.51 179.65,55.5 180.05,55.5 180.44,55.5 180.84,55.49 181.24,55.49 181.63,55.49 182.03,55.48 182.43,55.48 182.83,55.48 183.22,55.47 183.62,55.47 184.02,55.47 184.41,55.46 184.81,55.46 185.21,55.46 185.6,55.46 186,55.45 186.4,55.45 186.79,55.45 187.19,55.45 187.59,55.45 187.98,55.45 188.38,55.45 188.78,55.44 189.18,55.44 189.57,55.44 189.97,55.44 190.37,55.44 190.76,55.44 191.16,55.44 191.56,55.44 191.95,55.44 192.35,55.44 192.75,55.44 193.14,55.44 193.54,55.44 193.94,55.44 194.33,55.44 194.73,55.44 195.13,55.44 195.53,55.44 195.92,55.44 196.32,55.44 196.72,55.44 197.11,55.44 197.51,55.44 197.91,55.44 198.3,55.44 198.7,55.44 199.1,55.44 199.49,55.44 199.89,55.44 200.29,55.44 200.68,55.44 201.08,55.43 201.48,55.43 201.88,55.42 202.27,55.42 202.67,55.41 203.07,55.41 203.46,55.4 203.86,55.39 204.26,55.39 204.65,55.38 205.05,55.37 205.45,55.36 205.84,55.35 206.24,55.34 206.64,55.33 207.03,55.32 207.43,55.31 207.83,55.29 208.23,55.28 208.62,55.27 209.02,55.26 209.42,55.25 209.81,55.24 210.21,55.23 210.61,55.22 211,55.21 211.4,55.2 211.8,55.19 212.19,55.18 212.59,55.17 212.99,55.16 213.38,55.15 213.78,55.14 214.18,55.13 214.58,55.13 214.97,55.12 215.37,55.11 215.77,55.11 216.16,55.1 216.56,55.1 216.96,55.09 217.35,55.08 217.75,55.08 218.15,55.08 218.54,55.07 218.94,55.07 219.34,55.06 219.73,55.06 220.13,55.05 220.53,55.05 220.93,55.05 221.32,55.04 221.72,55.04 222.12,55.03 222.51,55.03 222.91,55.02 223.31,55.02 223.7,55.02 224.1,55.01 224.5,55.01 224.89,55 225.29,55 225.69,55 226.08,54.99 226.48,54.99 226.88,54.98 227.28,54.98 227.67,54.98 228.07,54.97 228.47,54.97 228.86,54.96 229.26,54.96 229.66,54.95 230.05,54.95 230.45,54.94 230.85,54.94 231.24,54.93 231.64,54.93 232.04,54.92 232.43,54.91 232.83,54.91 233.23,54.9 233.63,54.9 234.02,54.89 234.42,54.88 234.82,54.88 235.21,54.87 235.61,54.86 236.01,54.86 236.4,54.85 236.8,54.84 237.2,54.84 237.59,54.83 237.99,54.82 238.39,54.82 238.78,54.81 239.18,54.8 239.58,54.79 239.98,54.79 240.37,54.78 240.77,54.77 241.17,54.76 241.56,54.75 241.96,54.74 242.36,54.73 242.75,54.72 243.15,54.71 243.55,54.7 243.94,54.69 244.34,54.67 244.74,54.66 245.13,54.64 245.53,54.62 245.93,54.6 246.33,54.58 246.72,54.56 247.12,54.53 247.52,54.51 247.91,54.48 248.31,54.45 248.71,54.42 249.1,54.39 249.5,54.36 249.9,54.33 250.29,54.3 250.69,54.27 251.09,54.25 251.48,54.22 251.88,54.19 252.28,54.17 252.68,54.14 253.07,54.12 253.47,54.1 253.87,54.08 254.26,54.06 254.66,54.05 255.06,54.04 255.45,54.02 255.85,54.01 256.25,54.01 256.64,54 257.04,53.99 257.44,53.99 257.83,53.98 258.23,53.98 258.63,53.98 259.03,53.97 259.42,53.97 259.82,53.97 260.22,53.97 260.61,53.97 261.01,53.97 261.41,53.97 261.8,53.97" stroke-dasharray="none" stroke="rgb(31,120,180)" stroke-width="0.75" opacity="1" stroke-opacity="1" fill="none"/>
          </g>
          <g id="Fig:densplot_01.xyplot.lines.group.7.panel.1.1.1">
            <polyline id="Fig:densplot_01.xyplot.lines.group.7.panel.1.1.1.1" points="69.15,54.13 69.51,54.88 69.86,57.69 70.22,65.45 70.58,80.98 70.93,102.94 71.29,123.62 71.65,134.13 72,132.55 72.36,124.17 72.72,114.92 73.08,107.49 73.43,102.02 73.79,97.87 74.15,94.33 74.5,91.04 74.86,88.01 75.22,85.31 75.58,82.99 75.93,80.99 76.29,79.22 76.65,77.59 77,76.07 77.36,74.66 77.72,73.35 78.08,72.13 78.43,71.02 78.79,70.03 79.15,69.12 79.5,68.28 79.86,67.47 80.22,66.7 80.58,65.97 80.93,65.31 81.29,64.71 81.65,64.15 82,63.64 82.36,63.19 82.72,62.79 83.07,62.41 83.43,62.05 83.79,61.67 84.15,61.31 84.5,60.97 84.86,60.67 85.22,60.4 85.57,60.16 85.93,59.92 86.29,59.68 86.65,59.44 87,59.22 87.36,59.02 87.72,58.86 88.07,58.74 88.43,58.65 88.79,58.55 89.15,58.45 89.5,58.33 89.86,58.2 90.22,58.09 90.57,57.96 90.93,57.81 91.29,57.65 91.65,57.49 92,57.34 92.36,57.21 92.72,57.11 93.07,57.05 93.43,57 93.79,56.96 94.14,56.9 94.5,56.83 94.86,56.74 95.22,56.65 95.57,56.55 95.93,56.47 96.29,56.4 96.64,56.35 97,56.31 97.36,56.27 97.72,56.25 98.07,56.22 98.43,56.2 98.79,56.17 99.14,56.13 99.5,56.07 99.86,56 100.22,55.94 100.57,55.9 100.93,55.89 101.29,55.87 101.64,55.83 102,55.78 102.36,55.71 102.72,55.65 103.07,55.61 103.43,55.58 103.79,55.56 104.14,55.53 104.5,55.49 104.86,55.45 105.21,55.43 105.57,55.4 105.93,55.37 106.29,55.32 106.64,55.28 107,55.26 107.36,55.26 107.71,55.26 108.07,55.25 108.43,55.22 108.79,55.19 109.14,55.17 109.5,55.15 109.86,55.15 110.21,55.16 110.57,55.16 110.93,55.14 111.29,55.1 111.64,55.07 112,55.04 112.36,55.02 112.71,54.99 113.07,54.97 113.43,54.95 113.79,54.95 114.14,54.96 114.5,54.96 114.86,54.95 115.21,54.93 115.57,54.91 115.93,54.9 116.28,54.89 116.64,54.89 117,54.9 117.36,54.9 117.71,54.91 118.07,54.9 118.43,54.9 118.78,54.89 119.14,54.89 119.5,54.89 119.86,54.88 120.21,54.89 120.57,54.91 120.93,54.96 121.28,55.01 121.64,55.04 122,55.05 122.36,55.04 122.71,55.03 123.07,55.02 123.43,55.01 123.78,54.99 124.14,54.95 124.5,54.91 124.86,54.87 125.21,54.83 125.57,54.79 125.93,54.75 126.28,54.72 126.64,54.7 127,54.69 127.35,54.68 127.71,54.66 128.07,54.63 128.43,54.6 128.78,54.57 129.14,54.55 129.5,54.55 129.85,54.55 130.21,54.55 130.57,54.54 130.93,54.53 131.28,54.52 131.64,54.51 132,54.5 132.35,54.48 132.71,54.46 133.07,54.45 133.43,54.44 133.78,54.45 134.14,54.45 134.5,54.44 134.85,54.43 135.21,54.42 135.57,54.42 135.93,54.43 136.28,54.42 136.64,54.42 137,54.42 137.35,54.42 137.71,54.41 138.07,54.39 138.43,54.37 138.78,54.36 139.14,54.35 139.5,54.35 139.85,54.35 140.21,54.36 140.57,54.36 140.92,54.36 141.28,54.36 141.64,54.35 142,54.34 142.35,54.32 142.71,54.3 143.07,54.3 143.42,54.3 143.78,54.32 144.14,54.33 144.5,54.33 144.85,54.33 145.21,54.33 145.57,54.31 145.92,54.3 146.28,54.29 146.64,54.3 147,54.31 147.35,54.31 147.71,54.31 148.07,54.3 148.42,54.29 148.78,54.28 149.14,54.27 149.5,54.27 149.85,54.27 150.21,54.27 150.57,54.26 150.92,54.26 151.28,54.26 151.64,54.26 151.99,54.25 152.35,54.24 152.71,54.23 153.07,54.21 153.42,54.2 153.78,54.21 154.14,54.21 154.49,54.22 154.85,54.22 155.21,54.23 155.57,54.24 155.92,54.25 156.28,54.26 156.64,54.25 156.99,54.25 157.35,54.23 157.71,54.22 158.07,54.21 158.42,54.2 158.78,54.2 159.14,54.2 159.49,54.2 159.85,54.19 160.21,54.18 160.57,54.18 160.92,54.18 161.28,54.19 161.64,54.19 161.99,54.2 162.35,54.2 162.71,54.19 163.06,54.19 163.42,54.18 163.78,54.17 164.14,54.16 164.49,54.16 164.85,54.16 165.21,54.17 165.56,54.17 165.92,54.17 166.28,54.16 166.64,54.16 166.99,54.16 167.35,54.16 167.71,54.15 168.06,54.15 168.42,54.15 168.78,54.16 169.14,54.16 169.49,54.17 169.85,54.17 170.21,54.16 170.56,54.16 170.92,54.15 171.28,54.15 171.64,54.15 171.99,54.15 172.35,54.15 172.71,54.14 173.06,54.14 173.42,54.13 173.78,54.13 174.13,54.12 174.49,54.13 174.85,54.13 175.21,54.13 175.56,54.13 175.92,54.13 176.28,54.14 176.63,54.14 176.99,54.15 177.35,54.15 177.71,54.14 178.06,54.13 178.42,54.12 178.78,54.11 179.13,54.11 179.49,54.11 179.85,54.12 180.21,54.12 180.56,54.12 180.92,54.12 181.28,54.11 181.63,54.11 181.99,54.1 182.35,54.1 182.71,54.09 183.06,54.08 183.42,54.08 183.78,54.07 184.13,54.08 184.49,54.08 184.85,54.09 185.2,54.1 185.56,54.1 185.92,54.1 186.28,54.1 186.63,54.1 186.99,54.1 187.35,54.09 187.7,54.09 188.06,54.08 188.42,54.07 188.78,54.07 189.13,54.07 189.49,54.07 189.85,54.07 190.2,54.08 190.56,54.09 190.92,54.1 191.28,54.1 191.63,54.1 191.99,54.1 192.35,54.09 192.7,54.08 193.06,54.07 193.42,54.07 193.78,54.07 194.13,54.06 194.49,54.06 194.85,54.06 195.2,54.06 195.56,54.06 195.92,54.06 196.27,54.06 196.63,54.06 196.99,54.07 197.35,54.07 197.7,54.07 198.06,54.07 198.42,54.06 198.77,54.06 199.13,54.06 199.49,54.06 199.85,54.06 200.2,54.06 200.56,54.06 200.92,54.06 201.27,54.06 201.63,54.07 201.99,54.06 202.35,54.06 202.7,54.05 203.06,54.05 203.42,54.05 203.77,54.05 204.13,54.05 204.49,54.05 204.85,54.05 205.2,54.05 205.56,54.05 205.92,54.05 206.27,54.05 206.63,54.06 206.99,54.05 207.34,54.05 207.7,54.05 208.06,54.05 208.42,54.06 208.77,54.06 209.13,54.05 209.49,54.05 209.84,54.04 210.2,54.04 210.56,54.04 210.92,54.04 211.27,54.04 211.63,54.04 211.99,54.03 212.34,54.02 212.7,54.02 213.06,54.02 213.42,54.02 213.77,54.03 214.13,54.03 214.49,54.02 214.84,54.02 215.2,54.02 215.56,54.02 215.92,54.02 216.27,54.02 216.63,54.03 216.99,54.03 217.34,54.03 217.7,54.03 218.06,54.03 218.42,54.03 218.77,54.03 219.13,54.02 219.49,54.02 219.84,54.02 220.2,54.02 220.56,54.03 220.91,54.03 221.27,54.03 221.63,54.03 221.99,54.03 222.34,54.02 222.7,54.02 223.06,54.02 223.41,54.02 223.77,54.03 224.13,54.03 224.49,54.03 224.84,54.03 225.2,54.03 225.56,54.03 225.91,54.03 226.27,54.03 226.63,54.02 226.99,54.02 227.34,54.02 227.7,54.01 228.06,54.01 228.41,54.01 228.77,54.01 229.13,54.02 229.49,54.03 229.84,54.04 230.2,54.03 230.56,54.03 230.91,54.02 231.27,54.02 231.63,54.02 231.98,54.02 232.34,54.02 232.7,54.02 233.06,54.02 233.41,54.01 233.77,54.01 234.13,54.01 234.48,54.01 234.84,54.01 235.2,54.01 235.56,54.01 235.91,54.02 236.27,54.02 236.63,54.02 236.98,54.02 237.34,54.01 237.7,54.01 238.06,54.01 238.41,54.01 238.77,54.01 239.13,54.01 239.48,54 239.84,54 240.2,54 240.56,54 240.91,54.01 241.27,54.01 241.63,54.01 241.98,54.01 242.34,54 242.7,54 243.05,54 243.41,54 243.77,54 244.13,54 244.48,54 244.84,54 245.2,54.01 245.55,54.01 245.91,54.02 246.27,54.02 246.63,54.02 246.98,54.02 247.34,54.02 247.7,54.02 248.05,54.01 248.41,54.01 248.77,54.01 249.13,54.01 249.48,54 249.84,53.99 250.2,53.98 250.55,53.97 250.91,53.97 251.27,53.97 251.63,53.97" stroke-dasharray="none" stroke="rgb(31,120,180)" stroke-width="0.75" opacity="1" stroke-opacity="1" fill="none"/>
          </g>
          <g id="Fig:densplot_01.xyplot.lines.group.8.panel.1.1.1">
            <polyline id="Fig:densplot_01.xyplot.lines.group.8.panel.1.1.1.1" points="68.93,54.14 69.29,54.91 69.65,57.84 70,65.96 70.36,82.27 70.72,105.62 71.08,128.31 71.43,140.69 71.79,139.12 72.15,128.09 72.51,114.87 72.87,104.08 73.22,96.66 73.58,91.73 73.94,88.28 74.3,85.65 74.65,83.49 75.01,81.6 75.37,79.93 75.73,78.49 76.08,77.31 76.44,76.29 76.8,75.29 77.16,74.16 77.52,72.92 77.87,71.67 78.23,70.52 78.59,69.51 78.95,68.64 79.3,67.87 79.66,67.19 80.02,66.6 80.38,66.09 80.74,65.61 81.09,65.1 81.45,64.54 81.81,63.99 82.17,63.47 82.52,63.01 82.88,62.6 83.24,62.23 83.6,61.87 83.95,61.52 84.31,61.18 84.67,60.86 85.03,60.56 85.39,60.31 85.74,60.09 86.1,59.9 86.46,59.71 86.82,59.5 87.17,59.28 87.53,59.03 87.89,58.79 88.25,58.58 88.6,58.42 88.96,58.3 89.32,58.2 89.68,58.09 90.04,57.97 90.39,57.83 90.75,57.68 91.11,57.54 91.47,57.42 91.82,57.31 92.18,57.21 92.54,57.12 92.9,57.03 93.25,56.93 93.61,56.83 93.97,56.74 94.33,56.66 94.69,56.56 95.04,56.47 95.4,56.39 95.76,56.34 96.12,56.3 96.47,56.27 96.83,56.25 97.19,56.21 97.55,56.17 97.91,56.11 98.26,56.04 98.62,55.98 98.98,55.93 99.34,55.9 99.69,55.88 100.05,55.88 100.41,55.86 100.77,55.84 101.12,55.79 101.48,55.74 101.84,55.68 102.2,55.63 102.56,55.59 102.91,55.55 103.27,55.53 103.63,55.52 103.99,55.51 104.34,55.5 104.7,55.49 105.06,55.47 105.42,55.44 105.77,55.41 106.13,55.4 106.49,55.41 106.85,55.42 107.21,55.42 107.56,55.39 107.92,55.35 108.28,55.3 108.64,55.27 108.99,55.24 109.35,55.23 109.71,55.22 110.07,55.2 110.42,55.16 110.78,55.12 111.14,55.07 111.5,55.03 111.86,55.01 112.21,55 112.57,55 112.93,55.01 113.29,55 113.64,54.98 114,54.95 114.36,54.92 114.72,54.9 115.08,54.88 115.43,54.88 115.79,54.88 116.15,54.88 116.51,54.88 116.86,54.88 117.22,54.89 117.58,54.88 117.94,54.88 118.29,54.86 118.65,54.83 119.01,54.81 119.37,54.79 119.73,54.77 120.08,54.76 120.44,54.76 120.8,54.77 121.16,54.77 121.51,54.77 121.87,54.76 122.23,54.75 122.59,54.74 122.94,54.73 123.3,54.72 123.66,54.71 124.02,54.7 124.38,54.68 124.73,54.67 125.09,54.65 125.45,54.64 125.81,54.64 126.16,54.63 126.52,54.62 126.88,54.61 127.24,54.6 127.59,54.6 127.95,54.59 128.31,54.58 128.67,54.56 129.03,54.54 129.38,54.53 129.74,54.52 130.1,54.53 130.46,54.54 130.81,54.56 131.17,54.56 131.53,54.56 131.89,54.55 132.25,54.54 132.6,54.52 132.96,54.51 133.32,54.5 133.68,54.49 134.03,54.48 134.39,54.47 134.75,54.46 135.11,54.45 135.46,54.45 135.82,54.44 136.18,54.44 136.54,54.43 136.9,54.43 137.25,54.43 137.61,54.42 137.97,54.41 138.33,54.41 138.68,54.41 139.04,54.42 139.4,54.42 139.76,54.43 140.11,54.42 140.47,54.41 140.83,54.41 141.19,54.4 141.55,54.4 141.9,54.39 142.26,54.38 142.62,54.37 142.98,54.36 143.33,54.35 143.69,54.34 144.05,54.34 144.41,54.34 144.76,54.34 145.12,54.34 145.48,54.35 145.84,54.35 146.2,54.35 146.55,54.35 146.91,54.35 147.27,54.35 147.63,54.34 147.98,54.34 148.34,54.35 148.7,54.35 149.06,54.35 149.41,54.35 149.77,54.34 150.13,54.32 150.49,54.3 150.85,54.29 151.2,54.28 151.56,54.28 151.92,54.28 152.28,54.29 152.63,54.29 152.99,54.29 153.35,54.29 153.71,54.28 154.07,54.28 154.42,54.28 154.78,54.28 155.14,54.27 155.5,54.27 155.85,54.28 156.21,54.28 156.57,54.28 156.93,54.27 157.28,54.27 157.64,54.26 158,54.26 158.36,54.27 158.72,54.28 159.07,54.29 159.43,54.3 159.79,54.3 160.15,54.3 160.5,54.3 160.86,54.29 161.22,54.29 161.58,54.3 161.93,54.29 162.29,54.29 162.65,54.28 163.01,54.28 163.37,54.27 163.72,54.28 164.08,54.29 164.44,54.3 164.8,54.3 165.15,54.3 165.51,54.3 165.87,54.31 166.23,54.32 166.58,54.33 166.94,54.33 167.3,54.34 167.66,54.36 168.02,54.39 168.37,54.43 168.73,54.45 169.09,54.47 169.45,54.48 169.8,54.49 170.16,54.51 170.52,54.52 170.88,54.53 171.24,54.53 171.59,54.52 171.95,54.5 172.31,54.46 172.67,54.43 173.02,54.39 173.38,54.36 173.74,54.34 174.1,54.32 174.45,54.3 174.81,54.29 175.17,54.27 175.53,54.25 175.89,54.24 176.24,54.22 176.6,54.21 176.96,54.19 177.32,54.18 177.67,54.18 178.03,54.17 178.39,54.17 178.75,54.16 179.1,54.15 179.46,54.15 179.82,54.14 180.18,54.15 180.54,54.15 180.89,54.16 181.25,54.16 181.61,54.15 181.97,54.14 182.32,54.14 182.68,54.15 183.04,54.15 183.4,54.16 183.75,54.16 184.11,54.16 184.47,54.16 184.83,54.15 185.19,54.15 185.54,54.15 185.9,54.15 186.26,54.14 186.62,54.14 186.97,54.14 187.33,54.13 187.69,54.12 188.05,54.11 188.41,54.1 188.76,54.1 189.12,54.11 189.48,54.11 189.84,54.12 190.19,54.12 190.55,54.13 190.91,54.13 191.27,54.14 191.62,54.15 191.98,54.15 192.34,54.14 192.7,54.14 193.06,54.13 193.41,54.13 193.77,54.12 194.13,54.12 194.49,54.12 194.84,54.11 195.2,54.11 195.56,54.11 195.92,54.11 196.27,54.12 196.63,54.12 196.99,54.13 197.35,54.13 197.71,54.13 198.06,54.12 198.42,54.12 198.78,54.12 199.14,54.11 199.49,54.11 199.85,54.11 200.21,54.11 200.57,54.11 200.92,54.12 201.28,54.12 201.64,54.12 202,54.11 202.36,54.1 202.71,54.1 203.07,54.1 203.43,54.1 203.79,54.1 204.14,54.1 204.5,54.1 204.86,54.09 205.22,54.09 205.58,54.08 205.93,54.08 206.29,54.08 206.65,54.08 207.01,54.09 207.36,54.09 207.72,54.09 208.08,54.08 208.44,54.08 208.79,54.09 209.15,54.09 209.51,54.09 209.87,54.09 210.23,54.09 210.58,54.08 210.94,54.08 211.3,54.07 211.66,54.07 212.01,54.06 212.37,54.07 212.73,54.07 213.09,54.08 213.44,54.08 213.8,54.08 214.16,54.08 214.52,54.09 214.88,54.08 215.23,54.08 215.59,54.08 215.95,54.07 216.31,54.07 216.66,54.07 217.02,54.07 217.38,54.07 217.74,54.06 218.09,54.06 218.45,54.05 218.81,54.05 219.17,54.05 219.53,54.06 219.88,54.05 220.24,54.05 220.6,54.05 220.96,54.06 221.31,54.06 221.67,54.06 222.03,54.06 222.39,54.06 222.75,54.05 223.1,54.05 223.46,54.05 223.82,54.05 224.18,54.06 224.53,54.06 224.89,54.07 225.25,54.07 225.61,54.07 225.96,54.07 226.32,54.07 226.68,54.07 227.04,54.07 227.4,54.06 227.75,54.06 228.11,54.06 228.47,54.05 228.83,54.04 229.18,54.04 229.54,54.03 229.9,54.03 230.26,54.03 230.61,54.04 230.97,54.04 231.33,54.05 231.69,54.05 232.05,54.05 232.4,54.05 232.76,54.05 233.12,54.05 233.48,54.04 233.83,54.04 234.19,54.05 234.55,54.05 234.91,54.06 235.26,54.06 235.62,54.06 235.98,54.06 236.34,54.05 236.7,54.05 237.05,54.05 237.41,54.04 237.77,54.04 238.13,54.04 238.48,54.04 238.84,54.04 239.2,54.04 239.56,54.04 239.92,54.04 240.27,54.04 240.63,54.04 240.99,54.05 241.35,54.05 241.7,54.05 242.06,54.05 242.42,54.05 242.78,54.05 243.13,54.04 243.49,54.04 243.85,54.04 244.21,54.04 244.57,54.04 244.92,54.04 245.28,54.04 245.64,54.04 246,54.04 246.35,54.04 246.71,54.04 247.07,54.04 247.43,54.03 247.78,54.03 248.14,54.03 248.5,54.03 248.86,54.03 249.22,54.02 249.57,54.02 249.93,54 250.29,53.99 250.65,53.98 251,53.97 251.36,53.97 251.72,53.97" stroke-dasharray="none" stroke="rgb(31,120,180)" stroke-width="0.75" opacity="1" stroke-opacity="1" fill="none"/>
          </g>
        </g>
        <g id="Fig:densplot_01.panel.1.1.off.vp.2">
          <g id="Fig:densplot_01.border.panel.1.1.1">
            <rect id="Fig:densplot_01.border.panel.1.1.1.1" x="44.8" y="42.19" width="231.2" height="191.81" transform="" stroke="rgb(0,0,0)" stroke-dasharray="none" stroke-width="0.75" opacity="1" fill="none" stroke-opacity="1" fill-opacity="0"/>
          </g>
        </g>
        <g id="Fig:densplot_01..1"/>
      </g>
    </g>
  </g>
</svg>