<?xml version="1.0" encoding="ISO8859-1"?>
<svg xmlns="http://www.w3.org/2000/svg" xmlns:xlink="http://www.w3.org/1999/xlink" width="288px" height="252px" viewBox="0 0 288 252" version="1.1" id="Fig:dens">
  <metadata xmlns:gridsvg="http://www.stat.auckland.ac.nz/~paul/R/gridSVG/">
    <gridsvg:generator name="gridSVG" version="1.7-1" time="2020-04-19 01:11:10"/>
    <gridsvg:argument name="name" value="./Resultados/QCDir.Norm/dens.svg"/>
    <gridsvg:argument name="exportCoords" value="none"/>
    <gridsvg:argument name="exportMappings" value="none"/>
    <gridsvg:argument name="exportJS" value="none"/>
    <gridsvg:argument name="res" value="72"/>
    <gridsvg:argument name="prefix" value="Fig:dens"/>
    <gridsvg:argument name="addClasses" value="FALSE"/>
    <gridsvg:argument name="indent" value="TRUE"/>
    <gridsvg:argument name="htmlWrapper" value="FALSE"/>
    <gridsvg:argument name="usePaths" value="none"/>
    <gridsvg:argument name="uniqueNames" value="TRUE"/>
    <gridsvg:separator name="id.sep" value="."/>
    <gridsvg:separator name="gPath.sep" value="::"/>
    <gridsvg:separator name="vpPath.sep" value="::"/>
  </metadata>
  <g transform="translate(0, 252) scale(1, -1)">
    <g id="Fig:densgridSVG" fill="none" stroke="rgb(0,0,0)" stroke-dasharray="none" stroke-width="0.75" font-size="12" font-family="Helvetica, Arial, FreeSans, Liberation Sans, Nimbus Sans L, sans-serif" opacity="1" stroke-linecap="round" stroke-linejoin="round" stroke-miterlimit="10" stroke-opacity="1" fill-opacity="0" font-weight="normal" font-style="normal">
      <g id="Fig:densplot_01.background.1">
        <rect id="Fig:densplot_01.background.1.1" x="0" y="0" width="288" height="252" transform="" fill="none" stroke="none" stroke-opacity="0" fill-opacity="0"/>
      </g>
      <g id="Fig:densplot_01.toplevel.vp.1" font-size="12">
        <g id="Fig:densplot_01.ylab.vp.1">
          <g id="Fig:densplot_01.ylab.1">
            <g id="Fig:densplot_01.ylab.1.1" transform="translate(10.31, 138.09)" stroke-width="0.1">
              <g id="Fig:densplot_01.ylab.1.1.scale" transform="scale(1, -1)">
                <text x="0" y="0" id="Fig:densplot_01.ylab.1.1.text" transform="rotate(-90)" text-anchor="middle" opacity="1" stroke="rgb(0,0,0)" fill="rgb(0,0,0)" stroke-opacity="1" fill-opacity="1" font-size="12" font-weight="normal" font-style="normal">
                  <tspan id="Fig:densplot_01.ylab.1.1.tspan.1" dy="4.31" x="0">Density</tspan>
                </text>
              </g>
            </g>
          </g>
        </g>
        <g id="Fig:densplot_01.figure.vp.1"/>
        <defs>
          <clipPath id="Fig:densplot_01.panel.1.1.vp.1.clipPath">
            <rect x="44.8" y="42.19" width="231.2" height="191.81" fill="none" stroke="none"/>
          </clipPath>
        </defs>
        <g id="Fig:densplot_01.panel.1.1.vp.1" clip-path="url(#Fig:densplot_01.panel.1.1.vp.1.clipPath)"/>
        <g id="Fig:densplot_01.strip.1.1.off.vp.1"/>
        <g id="Fig:densplot_01.strip.left.1.1.off.vp.1">
          <g id="Fig:densplot_01.ticks.left.panel.1.1.1">
            <polyline id="Fig:densplot_01.ticks.left.panel.1.1.1.1" points="44.8,53.96 39.13,53.96" stroke="rgb(0,0,0)" opacity="1" stroke-dasharray="none" stroke-width="0.75" stroke-opacity="1" fill="none"/>
            <polyline id="Fig:densplot_01.ticks.left.panel.1.1.1.2" points="44.8,99.91 39.13,99.91" stroke="rgb(0,0,0)" opacity="1" stroke-dasharray="none" stroke-width="0.75" stroke-opacity="1" fill="none"/>
            <polyline id="Fig:densplot_01.ticks.left.panel.1.1.1.3" points="44.8,145.86 39.13,145.86" stroke="rgb(0,0,0)" opacity="1" stroke-dasharray="none" stroke-width="0.75" stroke-opacity="1" fill="none"/>
            <polyline id="Fig:densplot_01.ticks.left.panel.1.1.1.4" points="44.8,191.81 39.13,191.81" stroke="rgb(0,0,0)" opacity="1" stroke-dasharray="none" stroke-width="0.75" stroke-opacity="1" fill="none"/>
          </g>
          <g id="Fig:densplot_01.ticklabels.left.panel.1.1.1">
            <g id="Fig:densplot_01.ticklabels.left.panel.1.1.1.1" transform="translate(33.47, 53.96)" stroke-width="0.1">
              <g id="Fig:densplot_01.ticklabels.left.panel.1.1.1.1.scale" transform="scale(1, -1)">
                <text x="0" y="0" id="Fig:densplot_01.ticklabels.left.panel.1.1.1.1.text" transform="rotate(-90)" text-anchor="middle" stroke="rgb(0,0,0)" opacity="1" fill="rgb(0,0,0)" stroke-opacity="1" fill-opacity="1" font-size="9.6" font-weight="normal" font-style="normal">
                  <tspan id="Fig:densplot_01.ticklabels.left.panel.1.1.1.1.tspan.1" dy="0" x="0">0.0</tspan>
                </text>
              </g>
            </g>
            <g id="Fig:densplot_01.ticklabels.left.panel.1.1.1.2" transform="translate(33.47, 99.91)" stroke-width="0.1">
              <g id="Fig:densplot_01.ticklabels.left.panel.1.1.1.2.scale" transform="scale(1, -1)">
                <text x="0" y="0" id="Fig:densplot_01.ticklabels.left.panel.1.1.1.2.text" transform="rotate(-90)" text-anchor="middle" stroke="rgb(0,0,0)" opacity="1" fill="rgb(0,0,0)" stroke-opacity="1" fill-opacity="1" font-size="9.6" font-weight="normal" font-style="normal">
                  <tspan id="Fig:densplot_01.ticklabels.left.panel.1.1.1.2.tspan.1" dy="0" x="0">0.1</tspan>
                </text>
              </g>
            </g>
            <g id="Fig:densplot_01.ticklabels.left.panel.1.1.1.3" transform="translate(33.47, 145.86)" stroke-width="0.1">
              <g id="Fig:densplot_01.ticklabels.left.panel.1.1.1.3.scale" transform="scale(1, -1)">
                <text x="0" y="0" id="Fig:densplot_01.ticklabels.left.panel.1.1.1.3.text" transform="rotate(-90)" text-anchor="middle" stroke="rgb(0,0,0)" opacity="1" fill="rgb(0,0,0)" stroke-opacity="1" fill-opacity="1" font-size="9.6" font-weight="normal" font-style="normal">
                  <tspan id="Fig:densplot_01.ticklabels.left.panel.1.1.1.3.tspan.1" dy="0" x="0">0.2</tspan>
                </text>
              </g>
            </g>
            <g id="Fig:densplot_01.ticklabels.left.panel.1.1.1.4" transform="translate(33.47, 191.81)" stroke-width="0.1">
              <g id="Fig:densplot_01.ticklabels.left.panel.1.1.1.4.scale" transform="scale(1, -1)">
                <text x="0" y="0" id="Fig:densplot_01.ticklabels.left.panel.1.1.1.4.text" transform="rotate(-90)" text-anchor="middle" stroke="rgb(0,0,0)" opacity="1" fill="rgb(0,0,0)" stroke-opacity="1" fill-opacity="1" font-size="9.6" font-weight="normal" font-style="normal">
                  <tspan id="Fig:densplot_01.ticklabels.left.panel.1.1.1.4.tspan.1" dy="0" x="0">0.3</tspan>
                </text>
              </g>
            </g>
          </g>
        </g>
        <g id="Fig:densplot_01.panel.1.1.off.vp.1">
          <g id="Fig:densplot_01.ticks.bottom.panel.1.1.1">
            <polyline id="Fig:densplot_01.ticks.bottom.panel.1.1.1.1" points="45.38,42.19 45.38,36.52" stroke="rgb(0,0,0)" opacity="1" stroke-dasharray="none" stroke-width="0.75" stroke-opacity="1" fill="none"/>
            <polyline id="Fig:densplot_01.ticks.bottom.panel.1.1.1.2" points="122.86,42.19 122.86,36.52" stroke="rgb(0,0,0)" opacity="1" stroke-dasharray="none" stroke-width="0.75" stroke-opacity="1" fill="none"/>
            <polyline id="Fig:densplot_01.ticks.bottom.panel.1.1.1.3" points="200.34,42.19 200.34,36.52" stroke="rgb(0,0,0)" opacity="1" stroke-dasharray="none" stroke-width="0.75" stroke-opacity="1" fill="none"/>
          </g>
          <g id="Fig:densplot_01.ticklabels.bottom.panel.1.1.1">
            <g id="Fig:densplot_01.ticklabels.bottom.panel.1.1.1.1" transform="translate(122.86, 30.85)" stroke-width="0.1">
              <g id="Fig:densplot_01.ticklabels.bottom.panel.1.1.1.1.scale" transform="scale(1, -1)">
                <text x="0" y="0" id="Fig:densplot_01.ticklabels.bottom.panel.1.1.1.1.text" text-anchor="middle" stroke="rgb(0,0,0)" opacity="1" fill="rgb(0,0,0)" stroke-opacity="1" fill-opacity="1" font-size="9.6" font-weight="normal" font-style="normal">
                  <tspan id="Fig:densplot_01.ticklabels.bottom.panel.1.1.1.1.tspan.1" dy="7.18" x="0">5</tspan>
                </text>
              </g>
            </g>
            <g id="Fig:densplot_01.ticklabels.bottom.panel.1.1.1.2" transform="translate(200.34, 30.85)" stroke-width="0.1">
              <g id="Fig:densplot_01.ticklabels.bottom.panel.1.1.1.2.scale" transform="scale(1, -1)">
                <text x="0" y="0" id="Fig:densplot_01.ticklabels.bottom.panel.1.1.1.2.text" text-anchor="middle" stroke="rgb(0,0,0)" opacity="1" fill="rgb(0,0,0)" stroke-opacity="1" fill-opacity="1" font-size="9.6" font-weight="normal" font-style="normal">
                  <tspan id="Fig:densplot_01.ticklabels.bottom.panel.1.1.1.2.tspan.1" dy="7.18" x="0">10</tspan>
                </text>
              </g>
            </g>
          </g>
        </g>
        <defs>
          <clipPath id="Fig:densplot_01.panel.1.1.vp.2.clipPath">
            <rect x="44.8" y="42.19" width="231.2" height="191.81" fill="none" stroke="none"/>
          </clipPath>
        </defs>
        <g id="Fig:densplot_01.panel.1.1.vp.2" clip-path="url(#Fig:densplot_01.panel.1.1.vp.2.clipPath)">
          <g id="Fig:densplot_01.xyplot.lines.group.1.panel.1.1.1">
            <polyline id="Fig:densplot_01.xyplot.lines.group.1.panel.1.1.1.1" points="59.66,53.98 60.05,53.98 60.45,53.99 60.84,53.99 61.24,54 61.63,54.01 62.03,54.02 62.42,54.04 62.81,54.05 63.21,54.07 63.6,54.09 64,54.12 64.39,54.15 64.79,54.18 65.18,54.22 65.58,54.26 65.97,54.31 66.36,54.37 66.76,54.43 67.15,54.5 67.55,54.59 67.94,54.68 68.34,54.78 68.73,54.89 69.13,55.01 69.52,55.15 69.91,55.3 70.31,55.47 70.7,55.64 71.1,55.84 71.49,56.05 71.89,56.27 72.28,56.51 72.68,56.77 73.07,57.04 73.46,57.33 73.86,57.64 74.25,57.96 74.65,58.29 75.04,58.64 75.44,59.01 75.83,59.39 76.23,59.78 76.62,60.18 77.01,60.59 77.41,61.02 77.8,61.45 78.2,61.88 78.59,62.32 78.99,62.77 79.38,63.21 79.78,63.66 80.17,64.11 80.56,64.55 80.96,64.99 81.35,65.43 81.75,65.86 82.14,66.28 82.54,66.69 82.93,67.1 83.33,67.5 83.72,67.88 84.11,68.25 84.51,68.62 84.9,68.97 85.3,69.31 85.69,69.64 86.09,69.95 86.48,70.26 86.88,70.55 87.27,70.84 87.66,71.11 88.06,71.37 88.45,71.63 88.85,71.87 89.24,72.11 89.64,72.35 90.03,72.57 90.43,72.8 90.82,73.02 91.21,73.24 91.61,73.45 92,73.67 92.4,73.89 92.79,74.11 93.19,74.33 93.58,74.56 93.98,74.79 94.37,75.03 94.76,75.27 95.16,75.52 95.55,75.78 95.95,76.05 96.34,76.33 96.74,76.61 97.13,76.91 97.53,77.22 97.92,77.53 98.31,77.86 98.71,78.19 99.1,78.54 99.5,78.89 99.89,79.25 100.29,79.62 100.68,80 101.08,80.39 101.47,80.78 101.86,81.18 102.26,81.59 102.65,82 103.05,82.42 103.44,82.84 103.84,83.26 104.23,83.69 104.63,84.12 105.02,84.56 105.41,84.99 105.81,85.43 106.2,85.87 106.6,86.31 106.99,86.76 107.39,87.2 107.78,87.65 108.18,88.09 108.57,88.54 108.96,88.99 109.36,89.44 109.75,89.89 110.15,90.34 110.54,90.79 110.94,91.24 111.33,91.7 111.73,92.15 112.12,92.6 112.51,93.05 112.91,93.5 113.3,93.96 113.7,94.41 114.09,94.85 114.49,95.3 114.88,95.74 115.28,96.18 115.67,96.62 116.06,97.05 116.46,97.47 116.85,97.89 117.25,98.3 117.64,98.7 118.04,99.1 118.43,99.48 118.83,99.85 119.22,100.21 119.61,100.56 120.01,100.89 120.4,101.21 120.8,101.51 121.19,101.8 121.59,102.06 121.98,102.32 122.38,102.55 122.77,102.77 123.16,102.96 123.56,103.13 123.95,103.29 124.35,103.42 124.74,103.54 125.14,103.63 125.53,103.7 125.93,103.76 126.32,103.79 126.71,103.81 127.11,103.8 127.5,103.77 127.9,103.72 128.29,103.66 128.69,103.58 129.08,103.48 129.48,103.36 129.87,103.22 130.26,103.06 130.66,102.89 131.05,102.7 131.45,102.49 131.84,102.27 132.24,102.02 132.63,101.77 133.03,101.49 133.42,101.2 133.81,100.9 134.21,100.58 134.6,100.24 135,99.89 135.39,99.52 135.79,99.13 136.18,98.74 136.58,98.33 136.97,97.9 137.36,97.46 137.76,97.01 138.15,96.55 138.55,96.07 138.94,95.58 139.34,95.08 139.73,94.57 140.13,94.05 140.52,93.52 140.91,92.97 141.31,92.42 141.7,91.87 142.1,91.3 142.49,90.73 142.89,90.16 143.28,89.57 143.68,88.99 144.07,88.4 144.46,87.8 144.86,87.21 145.25,86.61 145.65,86.01 146.04,85.4 146.44,84.8 146.83,84.2 147.22,83.6 147.62,83 148.01,82.4 148.41,81.81 148.8,81.22 149.2,80.63 149.59,80.04 149.99,79.46 150.38,78.88 150.77,78.31 151.17,77.75 151.56,77.19 151.96,76.63 152.35,76.08 152.75,75.54 153.14,75.01 153.54,74.49 153.93,73.97 154.32,73.46 154.72,72.96 155.11,72.48 155.51,72 155.9,71.53 156.3,71.07 156.69,70.62 157.09,70.18 157.48,69.76 157.87,69.34 158.27,68.94 158.66,68.55 159.06,68.17 159.45,67.8 159.85,67.45 160.24,67.11 160.64,66.77 161.03,66.46 161.42,66.15 161.82,65.86 162.21,65.57 162.61,65.3 163,65.04 163.4,64.8 163.79,64.56 164.19,64.33 164.58,64.12 164.97,63.92 165.37,63.72 165.76,63.54 166.16,63.37 166.55,63.21 166.95,63.06 167.34,62.92 167.74,62.79 168.13,62.67 168.52,62.56 168.92,62.46 169.31,62.37 169.71,62.29 170.1,62.22 170.5,62.16 170.89,62.11 171.29,62.08 171.68,62.05 172.07,62.04 172.47,62.04 172.86,62.06 173.26,62.08 173.65,62.12 174.05,62.18 174.44,62.25 174.84,62.34 175.23,62.44 175.62,62.56 176.02,62.7 176.41,62.86 176.81,63.04 177.2,63.24 177.6,63.46 177.99,63.71 178.39,63.98 178.78,64.28 179.17,64.6 179.57,64.95 179.96,65.34 180.36,65.75 180.75,66.2 181.15,66.69 181.54,67.22 181.94,67.78 182.33,68.38 182.72,69.04 183.12,69.75 183.51,70.5 183.91,71.3 184.3,72.16 184.7,73.09 185.09,74.07 185.49,75.12 185.88,76.23 186.27,77.41 186.67,78.68 187.06,80.03 187.46,81.45 187.85,82.95 188.25,84.53 188.64,86.22 189.04,87.99 189.43,89.85 189.82,91.81 190.22,93.85 190.61,96.02 191.01,98.28 191.4,100.63 191.8,103.08 192.19,105.63 192.59,108.3 192.98,111.06 193.37,113.91 193.77,116.85 194.16,119.88 194.56,123.02 194.95,126.24 195.35,129.53 195.74,132.89 196.14,136.31 196.53,139.81 196.92,143.36 197.32,146.95 197.71,150.57 198.11,154.21 198.5,157.87 198.9,161.52 199.29,165.17 199.69,168.79 200.08,172.38 200.47,175.91 200.87,179.37 201.26,182.75 201.66,186.05 202.05,189.24 202.45,192.29 202.84,195.19 203.24,197.95 203.63,200.55 204.02,202.98 204.42,205.19 204.81,207.18 205.21,208.97 205.6,210.55 206,211.9 206.39,212.97 206.79,213.78 207.18,214.36 207.57,214.68 207.97,214.77 208.36,214.54 208.76,214.04 209.15,213.31 209.55,212.33 209.94,211.11 210.34,209.61 210.73,207.87 211.12,205.92 211.52,203.76 211.91,201.41 212.31,198.84 212.7,196.08 213.1,193.17 213.49,190.13 213.89,186.95 214.28,183.64 214.67,180.22 215.07,176.73 215.46,173.17 215.86,169.56 216.25,165.9 216.65,162.22 217.04,158.54 217.44,154.86 217.83,151.2 218.22,147.57 218.62,143.99 219.01,140.46 219.41,136.99 219.8,133.58 220.2,130.27 220.59,127.04 220.99,123.91 221.38,120.86 221.77,117.9 222.17,115.07 222.56,112.34 222.96,109.72 223.35,107.19 223.75,104.77 224.14,102.46 224.54,100.27 224.93,98.17 225.32,96.17 225.72,94.26 226.11,92.45 226.51,90.75 226.9,89.12 227.3,87.58 227.69,86.11 228.09,84.73 228.48,83.42 228.87,82.18 229.27,81.01 229.66,79.89 230.06,78.83 230.45,77.83 230.85,76.88 231.24,75.97 231.64,75.1 232.03,74.28 232.42,73.49 232.82,72.74 233.21,72.02 233.61,71.32 234,70.66 234.4,70.02 234.79,69.4 235.19,68.8 235.58,68.21 235.97,67.65 236.37,67.1 236.76,66.57 237.16,66.04 237.55,65.53 237.95,65.03 238.34,64.55 238.74,64.07 239.13,63.6 239.52,63.15 239.92,62.7 240.31,62.26 240.71,61.83 241.1,61.41 241.5,61 241.89,60.6 242.28,60.22 242.68,59.84 243.07,59.48 243.47,59.12 243.86,58.78 244.26,58.45 244.65,58.13 245.05,57.83 245.44,57.54 245.83,57.26 246.23,57 246.62,56.75 247.02,56.51 247.41,56.29 247.81,56.08 248.2,55.88 248.6,55.7 248.99,55.53 249.38,55.37 249.78,55.23 250.17,55.09 250.57,54.97 250.96,54.86 251.36,54.75 251.75,54.66 252.15,54.58 252.54,54.5 252.93,54.43 253.33,54.37 253.72,54.32 254.12,54.27 254.51,54.23 254.91,54.19 255.3,54.15 255.7,54.13 256.09,54.1 256.48,54.08 256.88,54.06 257.27,54.04 257.67,54.03 258.06,54.02 258.46,54.01 258.85,54 259.25,53.99 259.64,53.99 260.03,53.98 260.43,53.98 260.82,53.97 261.22,53.97" stroke-dasharray="none" stroke="rgb(31,120,180)" stroke-width="0.75" opacity="1" stroke-opacity="1" fill="none"/>
          </g>
          <g id="Fig:densplot_01.xyplot.lines.group.2.panel.1.1.1">
            <polyline id="Fig:densplot_01.xyplot.lines.group.2.panel.1.1.1.1" points="59,53.98 59.4,53.99 59.79,53.99 60.19,54 60.59,54.01 60.98,54.02 61.38,54.04 61.78,54.05 62.17,54.07 62.57,54.09 62.97,54.12 63.37,54.15 63.76,54.18 64.16,54.22 64.56,54.26 64.95,54.31 65.35,54.37 65.75,54.43 66.14,54.5 66.54,54.58 66.94,54.68 67.33,54.78 67.73,54.89 68.13,55.02 68.52,55.15 68.92,55.3 69.32,55.47 69.72,55.65 70.11,55.85 70.51,56.06 70.91,56.29 71.3,56.54 71.7,56.8 72.1,57.08 72.49,57.38 72.89,57.7 73.29,58.04 73.68,58.39 74.08,58.76 74.48,59.14 74.87,59.54 75.27,59.96 75.67,60.39 76.06,60.83 76.46,61.29 76.86,61.75 77.26,62.23 77.65,62.71 78.05,63.19 78.45,63.68 78.84,64.17 79.24,64.66 79.64,65.15 80.03,65.64 80.43,66.12 80.83,66.6 81.22,67.07 81.62,67.53 82.02,67.98 82.41,68.42 82.81,68.84 83.21,69.26 83.6,69.66 84,70.05 84.4,70.42 84.8,70.78 85.19,71.12 85.59,71.45 85.99,71.77 86.38,72.08 86.78,72.37 87.18,72.65 87.57,72.92 87.97,73.18 88.37,73.44 88.76,73.69 89.16,73.93 89.56,74.17 89.95,74.4 90.35,74.64 90.75,74.87 91.15,75.11 91.54,75.35 91.94,75.6 92.34,75.85 92.73,76.1 93.13,76.37 93.53,76.64 93.92,76.93 94.32,77.22 94.72,77.53 95.11,77.84 95.51,78.17 95.91,78.51 96.3,78.86 96.7,79.23 97.1,79.6 97.49,79.99 97.89,80.39 98.29,80.8 98.69,81.22 99.08,81.65 99.48,82.08 99.88,82.53 100.27,82.98 100.67,83.44 101.07,83.9 101.46,84.37 101.86,84.84 102.26,85.31 102.65,85.79 103.05,86.27 103.45,86.75 103.84,87.23 104.24,87.71 104.64,88.19 105.03,88.66 105.43,89.14 105.83,89.61 106.23,90.08 106.62,90.54 107.02,91 107.42,91.46 107.81,91.91 108.21,92.36 108.61,92.8 109,93.24 109.4,93.67 109.8,94.09 110.19,94.51 110.59,94.92 110.99,95.32 111.38,95.72 111.78,96.11 112.18,96.49 112.58,96.87 112.97,97.23 113.37,97.59 113.77,97.94 114.16,98.28 114.56,98.61 114.96,98.94 115.35,99.25 115.75,99.55 116.15,99.84 116.54,100.13 116.94,100.4 117.34,100.66 117.73,100.91 118.13,101.15 118.53,101.37 118.92,101.58 119.32,101.79 119.72,101.97 120.12,102.15 120.51,102.31 120.91,102.46 121.31,102.59 121.7,102.71 122.1,102.81 122.5,102.9 122.89,102.98 123.29,103.04 123.69,103.08 124.08,103.11 124.48,103.12 124.88,103.12 125.27,103.1 125.67,103.06 126.07,103.01 126.46,102.94 126.86,102.86 127.26,102.76 127.66,102.64 128.05,102.51 128.45,102.37 128.85,102.2 129.24,102.03 129.64,101.83 130.04,101.62 130.43,101.4 130.83,101.16 131.23,100.91 131.62,100.64 132.02,100.35 132.42,100.05 132.81,99.74 133.21,99.41 133.61,99.07 134.01,98.71 134.4,98.34 134.8,97.95 135.2,97.55 135.59,97.13 135.99,96.71 136.39,96.26 136.78,95.81 137.18,95.34 137.58,94.86 137.97,94.36 138.37,93.86 138.77,93.34 139.16,92.81 139.56,92.27 139.96,91.72 140.35,91.16 140.75,90.59 141.15,90.01 141.55,89.43 141.94,88.84 142.34,88.24 142.74,87.63 143.13,87.02 143.53,86.4 143.93,85.78 144.32,85.16 144.72,84.54 145.12,83.91 145.51,83.28 145.91,82.66 146.31,82.03 146.7,81.41 147.1,80.78 147.5,80.17 147.89,79.55 148.29,78.94 148.69,78.33 149.09,77.73 149.48,77.14 149.88,76.56 150.28,75.98 150.67,75.41 151.07,74.85 151.47,74.3 151.86,73.75 152.26,73.22 152.66,72.7 153.05,72.19 153.45,71.69 153.85,71.2 154.24,70.72 154.64,70.26 155.04,69.81 155.44,69.36 155.83,68.93 156.23,68.51 156.63,68.11 157.02,67.71 157.42,67.33 157.82,66.96 158.21,66.6 158.61,66.25 159.01,65.91 159.4,65.59 159.8,65.27 160.2,64.96 160.59,64.67 160.99,64.38 161.39,64.11 161.78,63.84 162.18,63.59 162.58,63.34 162.98,63.11 163.37,62.88 163.77,62.66 164.17,62.45 164.56,62.25 164.96,62.06 165.36,61.88 165.75,61.7 166.15,61.54 166.55,61.38 166.94,61.24 167.34,61.1 167.74,60.97 168.13,60.85 168.53,60.74 168.93,60.64 169.32,60.54 169.72,60.46 170.12,60.39 170.52,60.32 170.91,60.27 171.31,60.23 171.71,60.19 172.1,60.17 172.5,60.16 172.9,60.15 173.29,60.16 173.69,60.18 174.09,60.21 174.48,60.26 174.88,60.32 175.28,60.39 175.67,60.47 176.07,60.56 176.47,60.67 176.87,60.8 177.26,60.94 177.66,61.1 178.06,61.27 178.45,61.46 178.85,61.68 179.25,61.91 179.64,62.16 180.04,62.43 180.44,62.74 180.83,63.06 181.23,63.41 181.63,63.79 182.02,64.2 182.42,64.65 182.82,65.13 183.21,65.64 183.61,66.19 184.01,66.79 184.41,67.43 184.8,68.12 185.2,68.86 185.6,69.64 185.99,70.49 186.39,71.4 186.79,72.37 187.18,73.41 187.58,74.51 187.98,75.69 188.37,76.95 188.77,78.29 189.17,79.71 189.56,81.21 189.96,82.82 190.36,84.53 190.75,86.33 191.15,88.23 191.55,90.22 191.95,92.34 192.34,94.58 192.74,96.91 193.14,99.35 193.53,101.9 193.93,104.59 194.33,107.39 194.72,110.29 195.12,113.3 195.52,116.41 195.91,119.65 196.31,122.99 196.71,126.42 197.1,129.93 197.5,133.52 197.9,137.21 198.3,140.95 198.69,144.75 199.09,148.6 199.49,152.48 199.88,156.39 200.28,160.31 200.68,164.22 201.07,168.12 201.47,171.98 201.87,175.79 202.26,179.54 202.66,183.21 203.06,186.79 203.45,190.26 203.85,193.57 204.25,196.75 204.64,199.78 205.04,202.64 205.44,205.31 205.84,207.74 206.23,209.97 206.63,211.98 207.03,213.78 207.42,215.3 207.82,216.53 208.22,217.52 208.61,218.25 209.01,218.73 209.41,218.9 209.8,218.77 210.2,218.38 210.6,217.73 210.99,216.83 211.39,215.62 211.79,214.14 212.18,212.43 212.58,210.49 212.98,208.33 213.38,205.91 213.77,203.28 214.17,200.47 214.57,197.5 214.96,194.36 215.36,191.05 215.76,187.61 216.15,184.07 216.55,180.43 216.95,176.71 217.34,172.91 217.74,169.06 218.14,165.19 218.53,161.29 218.93,157.39 219.33,153.51 219.72,149.65 220.12,145.83 220.52,142.05 220.92,138.33 221.31,134.7 221.71,131.14 222.11,127.67 222.5,124.28 222.9,121 223.3,117.84 223.69,114.78 224.09,111.83 224.49,108.99 224.88,106.27 225.28,103.69 225.68,101.22 226.07,98.85 226.47,96.6 226.87,94.46 227.27,92.45 227.66,90.54 228.06,88.72 228.46,87 228.85,85.39 229.25,83.88 229.65,82.45 230.04,81.09 230.44,79.81 230.84,78.62 231.23,77.49 231.63,76.43 232.03,75.43 232.42,74.47 232.82,73.58 233.22,72.74 233.61,71.93 234.01,71.17 234.41,70.44 234.81,69.75 235.2,69.09 235.6,68.45 236,67.84 236.39,67.25 236.79,66.69 237.19,66.14 237.58,65.61 237.98,65.09 238.38,64.59 238.77,64.11 239.17,63.64 239.57,63.17 239.96,62.72 240.36,62.28 240.76,61.86 241.15,61.44 241.55,61.04 241.95,60.64 242.35,60.25 242.74,59.88 243.14,59.52 243.54,59.17 243.93,58.83 244.33,58.51 244.73,58.19 245.12,57.89 245.52,57.61 245.92,57.33 246.31,57.07 246.71,56.82 247.11,56.58 247.5,56.36 247.9,56.15 248.3,55.95 248.7,55.77 249.09,55.6 249.49,55.44 249.89,55.29 250.28,55.16 250.68,55.03 251.08,54.92 251.47,54.81 251.87,54.71 252.27,54.63 252.66,54.55 253.06,54.48 253.46,54.41 253.85,54.35 254.25,54.3 254.65,54.26 255.04,54.22 255.44,54.18 255.84,54.15 256.24,54.12 256.63,54.1 257.03,54.08 257.43,54.06 257.82,54.04 258.22,54.03 258.62,54.02 259.01,54.01 259.41,54 259.81,53.99 260.2,53.99 260.6,53.98 261,53.98 261.39,53.97 261.79,53.97" stroke-dasharray="none" stroke="rgb(31,120,180)" stroke-width="0.75" opacity="1" stroke-opacity="1" fill="none"/>
          </g>
          <g id="Fig:densplot_01.xyplot.lines.group.3.panel.1.1.1">
            <polyline id="Fig:densplot_01.xyplot.lines.group.3.panel.1.1.1.1" points="59.49,53.97 59.89,53.98 60.28,53.98 60.68,53.99 61.07,54 61.47,54 61.86,54.01 62.26,54.03 62.65,54.04 63.05,54.06 63.44,54.08 63.84,54.1 64.23,54.12 64.63,54.15 65.02,54.19 65.42,54.22 65.81,54.27 66.21,54.32 66.61,54.37 67,54.44 67.4,54.51 67.79,54.59 68.19,54.68 68.58,54.78 68.98,54.88 69.37,55 69.77,55.14 70.16,55.28 70.56,55.44 70.95,55.61 71.35,55.8 71.74,56 72.14,56.21 72.53,56.45 72.93,56.69 73.32,56.95 73.72,57.23 74.11,57.53 74.51,57.84 74.9,58.16 75.3,58.5 75.69,58.86 76.09,59.23 76.48,59.61 76.88,60 77.27,60.41 77.67,60.83 78.06,61.25 78.46,61.69 78.85,62.13 79.25,62.58 79.64,63.04 80.04,63.5 80.43,63.96 80.83,64.42 81.22,64.89 81.62,65.36 82.01,65.82 82.41,66.28 82.8,66.74 83.2,67.19 83.59,67.64 83.99,68.09 84.38,68.53 84.78,68.96 85.17,69.38 85.57,69.8 85.97,70.21 86.36,70.61 86.76,71 87.15,71.38 87.55,71.76 87.94,72.13 88.34,72.48 88.73,72.83 89.13,73.18 89.52,73.51 89.92,73.84 90.31,74.15 90.71,74.47 91.1,74.77 91.5,75.07 91.89,75.36 92.29,75.65 92.68,75.93 93.08,76.21 93.47,76.49 93.87,76.76 94.26,77.03 94.66,77.3 95.05,77.57 95.45,77.84 95.84,78.11 96.24,78.38 96.63,78.65 97.03,78.93 97.42,79.21 97.82,79.5 98.21,79.79 98.61,80.09 99,80.39 99.4,80.71 99.79,81.03 100.19,81.36 100.58,81.7 100.98,82.05 101.37,82.42 101.77,82.79 102.16,83.17 102.56,83.57 102.95,83.97 103.35,84.39 103.74,84.82 104.14,85.26 104.53,85.71 104.93,86.17 105.33,86.64 105.72,87.12 106.12,87.61 106.51,88.11 106.91,88.61 107.3,89.12 107.7,89.63 108.09,90.15 108.49,90.67 108.88,91.19 109.28,91.71 109.67,92.24 110.07,92.75 110.46,93.27 110.86,93.78 111.25,94.29 111.65,94.78 112.04,95.27 112.44,95.75 112.83,96.23 113.23,96.69 113.62,97.13 114.02,97.57 114.41,97.99 114.81,98.4 115.2,98.79 115.6,99.17 115.99,99.53 116.39,99.88 116.78,100.21 117.18,100.53 117.57,100.83 117.97,101.12 118.36,101.39 118.76,101.65 119.15,101.88 119.55,102.11 119.94,102.32 120.34,102.51 120.73,102.69 121.13,102.86 121.52,103.01 121.92,103.14 122.31,103.26 122.71,103.37 123.1,103.46 123.5,103.53 123.89,103.59 124.29,103.64 124.69,103.67 125.08,103.68 125.48,103.68 125.87,103.66 126.27,103.63 126.66,103.58 127.06,103.52 127.45,103.43 127.85,103.34 128.24,103.22 128.64,103.1 129.03,102.95 129.43,102.79 129.82,102.61 130.22,102.42 130.61,102.21 131.01,101.99 131.4,101.75 131.8,101.5 132.19,101.23 132.59,100.96 132.98,100.66 133.38,100.36 133.77,100.04 134.17,99.71 134.56,99.37 134.96,99.01 135.35,98.64 135.75,98.26 136.14,97.88 136.54,97.48 136.93,97.06 137.33,96.64 137.72,96.21 138.12,95.77 138.51,95.31 138.91,94.85 139.3,94.38 139.7,93.9 140.09,93.4 140.49,92.9 140.88,92.4 141.28,91.88 141.67,91.35 142.07,90.81 142.46,90.27 142.86,89.72 143.25,89.17 143.65,88.6 144.05,88.03 144.44,87.46 144.84,86.88 145.23,86.3 145.63,85.71 146.02,85.12 146.42,84.52 146.81,83.93 147.21,83.33 147.6,82.73 148,82.14 148.39,81.54 148.79,80.94 149.18,80.35 149.58,79.76 149.97,79.18 150.37,78.59 150.76,78.02 151.16,77.45 151.55,76.89 151.95,76.33 152.34,75.78 152.74,75.24 153.13,74.72 153.53,74.2 153.92,73.69 154.32,73.2 154.71,72.72 155.11,72.25 155.5,71.79 155.9,71.35 156.29,70.93 156.69,70.51 157.08,70.12 157.48,69.74 157.87,69.38 158.27,69.03 158.66,68.7 159.06,68.38 159.45,68.09 159.85,67.8 160.24,67.54 160.64,67.29 161.03,67.05 161.43,66.84 161.82,66.63 162.22,66.45 162.61,66.27 163.01,66.12 163.41,65.97 163.8,65.85 164.2,65.73 164.59,65.63 164.99,65.54 165.38,65.46 165.78,65.4 166.17,65.35 166.57,65.31 166.96,65.28 167.36,65.27 167.75,65.27 168.15,65.27 168.54,65.29 168.94,65.33 169.33,65.37 169.73,65.42 170.12,65.49 170.52,65.57 170.91,65.66 171.31,65.76 171.7,65.88 172.1,66.01 172.49,66.15 172.89,66.31 173.28,66.48 173.68,66.67 174.07,66.88 174.47,67.1 174.86,67.35 175.26,67.61 175.65,67.9 176.05,68.21 176.44,68.54 176.84,68.91 177.23,69.3 177.63,69.71 178.02,70.16 178.42,70.65 178.81,71.17 179.21,71.74 179.6,72.34 180,72.98 180.39,73.67 180.79,74.41 181.18,75.2 181.58,76.03 181.98,76.92 182.37,77.86 182.77,78.87 183.16,79.94 183.56,81.06 183.95,82.24 184.35,83.49 184.74,84.81 185.14,86.19 185.53,87.63 185.93,89.14 186.32,90.71 186.72,92.36 187.11,94.07 187.51,95.84 187.9,97.67 188.3,99.56 188.69,101.53 189.09,103.54 189.48,105.61 189.88,107.72 190.27,109.9 190.67,112.12 191.06,114.38 191.46,116.68 191.85,119.01 192.25,121.37 192.64,123.76 193.04,126.16 193.43,128.58 193.83,131.01 194.22,133.44 194.62,135.87 195.01,138.28 195.41,140.68 195.8,143.05 196.2,145.4 196.59,147.7 196.99,149.95 197.38,152.16 197.78,154.31 198.17,156.4 198.57,158.4 198.96,160.33 199.36,162.17 199.75,163.94 200.15,165.59 200.54,167.14 200.94,168.58 201.34,169.92 201.73,171.16 202.13,172.26 202.52,173.24 202.92,174.1 203.31,174.85 203.71,175.48 204.1,175.97 204.5,176.33 204.89,176.58 205.29,176.71 205.68,176.73 206.08,176.62 206.47,176.4 206.87,176.07 207.26,175.65 207.66,175.12 208.05,174.5 208.45,173.77 208.84,172.97 209.24,172.09 209.63,171.13 210.03,170.1 210.42,169 210.82,167.83 211.21,166.62 211.61,165.35 212,164.03 212.4,162.66 212.79,161.25 213.19,159.81 213.58,158.33 213.98,156.82 214.37,155.27 214.77,153.71 215.16,152.12 215.56,150.51 215.95,148.88 216.35,147.23 216.74,145.56 217.14,143.88 217.53,142.2 217.93,140.49 218.32,138.78 218.72,137.07 219.11,135.34 219.51,133.61 219.9,131.88 220.3,130.15 220.7,128.42 221.09,126.69 221.49,124.96 221.88,123.24 222.28,121.53 222.67,119.82 223.07,118.13 223.46,116.44 223.86,114.77 224.25,113.11 224.65,111.47 225.04,109.85 225.44,108.24 225.83,106.66 226.23,105.1 226.62,103.56 227.02,102.04 227.41,100.54 227.81,99.07 228.2,97.63 228.6,96.21 228.99,94.81 229.39,93.44 229.78,92.09 230.18,90.78 230.57,89.49 230.97,88.22 231.36,86.98 231.76,85.77 232.15,84.59 232.55,83.43 232.94,82.29 233.34,81.17 233.73,80.09 234.13,79.03 234.52,77.99 234.92,76.97 235.31,75.98 235.71,75.01 236.1,74.07 236.5,73.15 236.89,72.25 237.29,71.37 237.68,70.52 238.08,69.69 238.47,68.88 238.87,68.1 239.26,67.33 239.66,66.6 240.06,65.88 240.45,65.19 240.85,64.52 241.24,63.87 241.64,63.25 242.03,62.65 242.43,62.08 242.82,61.52 243.22,60.99 243.61,60.49 244.01,60.01 244.4,59.55 244.8,59.12 245.19,58.71 245.59,58.32 245.98,57.95 246.38,57.61 246.77,57.29 247.17,56.98 247.56,56.7 247.96,56.44 248.35,56.2 248.75,55.98 249.14,55.77 249.54,55.58 249.93,55.4 250.33,55.24 250.72,55.1 251.12,54.97 251.51,54.85 251.91,54.74 252.3,54.64 252.7,54.56 253.09,54.48 253.49,54.41 253.88,54.35 254.28,54.3 254.67,54.25 255.07,54.21 255.46,54.17 255.86,54.14 256.25,54.11 256.65,54.09 257.04,54.07 257.44,54.05 257.83,54.03 258.23,54.02 258.62,54.01 259.02,54 259.42,53.99 259.81,53.99 260.21,53.98 260.6,53.98 261,53.97 261.39,53.97" stroke-dasharray="none" stroke="rgb(31,120,180)" stroke-width="0.75" opacity="1" stroke-opacity="1" fill="none"/>
          </g>
          <g id="Fig:densplot_01.xyplot.lines.group.4.panel.1.1.1">
            <polyline id="Fig:densplot_01.xyplot.lines.group.4.panel.1.1.1.1" points="60.21,53.97 60.6,53.98 60.99,53.98 61.39,53.99 61.78,53.99 62.17,54 62.56,54.01 62.96,54.02 63.35,54.04 63.74,54.05 64.13,54.07 64.53,54.09 64.92,54.11 65.31,54.14 65.7,54.17 66.09,54.21 66.49,54.25 66.88,54.3 67.27,54.36 67.66,54.42 68.06,54.49 68.45,54.56 68.84,54.65 69.23,54.74 69.63,54.85 70.02,54.96 70.41,55.09 70.8,55.23 71.2,55.38 71.59,55.55 71.98,55.72 72.37,55.91 72.77,56.12 73.16,56.34 73.55,56.57 73.94,56.82 74.33,57.08 74.73,57.35 75.12,57.64 75.51,57.94 75.9,58.26 76.3,58.59 76.69,58.93 77.08,59.28 77.47,59.63 77.87,60 78.26,60.38 78.65,60.77 79.04,61.16 79.44,61.55 79.83,61.96 80.22,62.36 80.61,62.77 81.01,63.18 81.4,63.59 81.79,64 82.18,64.4 82.57,64.81 82.97,65.21 83.36,65.61 83.75,66.01 84.14,66.4 84.54,66.79 84.93,67.17 85.32,67.55 85.71,67.92 86.11,68.29 86.5,68.65 86.89,69 87.28,69.35 87.68,69.69 88.07,70.03 88.46,70.36 88.85,70.69 89.25,71 89.64,71.32 90.03,71.63 90.42,71.93 90.81,72.23 91.21,72.52 91.6,72.82 91.99,73.1 92.38,73.38 92.78,73.66 93.17,73.94 93.56,74.21 93.95,74.49 94.35,74.76 94.74,75.02 95.13,75.29 95.52,75.56 95.92,75.83 96.31,76.1 96.7,76.37 97.09,76.64 97.49,76.92 97.88,77.19 98.27,77.48 98.66,77.76 99.05,78.06 99.45,78.35 99.84,78.65 100.23,78.96 100.62,79.28 101.02,79.6 101.41,79.93 101.8,80.27 102.19,80.61 102.59,80.96 102.98,81.31 103.37,81.67 103.76,82.04 104.16,82.41 104.55,82.79 104.94,83.17 105.33,83.55 105.73,83.93 106.12,84.32 106.51,84.71 106.9,85.1 107.29,85.49 107.69,85.87 108.08,86.26 108.47,86.64 108.86,87.02 109.26,87.4 109.65,87.77 110.04,88.15 110.43,88.51 110.83,88.88 111.22,89.24 111.61,89.59 112,89.95 112.4,90.3 112.79,90.65 113.18,90.99 113.57,91.34 113.96,91.68 114.36,92.03 114.75,92.37 115.14,92.71 115.53,93.05 115.93,93.4 116.32,93.74 116.71,94.09 117.1,94.43 117.5,94.78 117.89,95.12 118.28,95.47 118.67,95.82 119.07,96.16 119.46,96.5 119.85,96.84 120.24,97.17 120.64,97.5 121.03,97.83 121.42,98.14 121.81,98.45 122.2,98.75 122.6,99.03 122.99,99.31 123.38,99.57 123.77,99.81 124.17,100.04 124.56,100.25 124.95,100.45 125.34,100.62 125.74,100.78 126.13,100.92 126.52,101.03 126.91,101.13 127.31,101.2 127.7,101.25 128.09,101.29 128.48,101.3 128.88,101.29 129.27,101.27 129.66,101.22 130.05,101.16 130.44,101.08 130.84,100.98 131.23,100.86 131.62,100.74 132.01,100.59 132.41,100.44 132.8,100.27 133.19,100.08 133.58,99.89 133.98,99.69 134.37,99.47 134.76,99.25 135.15,99.01 135.55,98.77 135.94,98.52 136.33,98.26 136.72,97.99 137.12,97.71 137.51,97.42 137.9,97.12 138.29,96.82 138.68,96.5 139.08,96.18 139.47,95.85 139.86,95.51 140.25,95.17 140.65,94.81 141.04,94.45 141.43,94.08 141.82,93.71 142.22,93.32 142.61,92.94 143,92.54 143.39,92.14 143.79,91.73 144.18,91.32 144.57,90.91 144.96,90.49 145.36,90.07 145.75,89.65 146.14,89.23 146.53,88.8 146.92,88.38 147.32,87.95 147.71,87.52 148.1,87.09 148.49,86.67 148.89,86.24 149.28,85.82 149.67,85.39 150.06,84.97 150.46,84.55 150.85,84.13 151.24,83.71 151.63,83.3 152.03,82.88 152.42,82.47 152.81,82.06 153.2,81.66 153.6,81.25 153.99,80.85 154.38,80.46 154.77,80.06 155.16,79.67 155.56,79.29 155.95,78.91 156.34,78.53 156.73,78.16 157.13,77.8 157.52,77.44 157.91,77.08 158.3,76.74 158.7,76.4 159.09,76.07 159.48,75.75 159.87,75.44 160.27,75.13 160.66,74.84 161.05,74.56 161.44,74.28 161.84,74.02 162.23,73.76 162.62,73.52 163.01,73.29 163.4,73.07 163.8,72.86 164.19,72.66 164.58,72.48 164.97,72.3 165.37,72.14 165.76,71.99 166.15,71.85 166.54,71.73 166.94,71.62 167.33,71.52 167.72,71.43 168.11,71.36 168.51,71.3 168.9,71.26 169.29,71.23 169.68,71.22 170.08,71.22 170.47,71.24 170.86,71.28 171.25,71.34 171.64,71.42 172.04,71.53 172.43,71.65 172.82,71.8 173.21,71.97 173.61,72.18 174,72.4 174.39,72.66 174.78,72.94 175.18,73.26 175.57,73.62 175.96,74 176.35,74.41 176.75,74.87 177.14,75.36 177.53,75.89 177.92,76.45 178.32,77.05 178.71,77.69 179.1,78.38 179.49,79.11 179.88,79.87 180.28,80.68 180.67,81.53 181.06,82.42 181.45,83.36 181.85,84.34 182.24,85.36 182.63,86.42 183.02,87.53 183.42,88.69 183.81,89.88 184.2,91.12 184.59,92.41 184.99,93.74 185.38,95.12 185.77,96.54 186.16,97.99 186.56,99.49 186.95,101.05 187.34,102.64 187.73,104.27 188.12,105.94 188.52,107.65 188.91,109.41 189.3,111.2 189.69,113.02 190.09,114.88 190.48,116.76 190.87,118.68 191.26,120.63 191.66,122.59 192.05,124.58 192.44,126.58 192.83,128.59 193.23,130.61 193.62,132.64 194.01,134.66 194.4,136.67 194.8,138.67 195.19,140.65 195.58,142.61 195.97,144.53 196.36,146.43 196.76,148.28 197.15,150.07 197.54,151.81 197.93,153.5 198.33,155.12 198.72,156.67 199.11,158.14 199.5,159.52 199.9,160.82 200.29,162.04 200.68,163.17 201.07,164.18 201.47,165.1 201.86,165.93 202.25,166.65 202.64,167.29 203.03,167.79 203.43,168.21 203.82,168.52 204.21,168.75 204.6,168.88 205,168.9 205.39,168.83 205.78,168.67 206.17,168.44 206.57,168.13 206.96,167.72 207.35,167.25 207.74,166.7 208.14,166.09 208.53,165.43 208.92,164.69 209.31,163.89 209.71,163.05 210.1,162.16 210.49,161.22 210.88,160.23 211.27,159.19 211.67,158.12 212.06,157.01 212.45,155.86 212.84,154.68 213.24,153.45 213.63,152.2 214.02,150.91 214.41,149.6 214.81,148.25 215.2,146.87 215.59,145.46 215.98,144.02 216.38,142.57 216.77,141.08 217.16,139.57 217.55,138.04 217.95,136.5 218.34,134.93 218.73,133.35 219.12,131.75 219.51,130.14 219.91,128.53 220.3,126.9 220.69,125.27 221.08,123.64 221.48,122.01 221.87,120.38 222.26,118.75 222.65,117.13 223.05,115.52 223.44,113.92 223.83,112.34 224.22,110.76 224.62,109.21 225.01,107.67 225.4,106.15 225.79,104.65 226.19,103.17 226.58,101.71 226.97,100.28 227.36,98.87 227.75,97.48 228.15,96.12 228.54,94.78 228.93,93.46 229.32,92.18 229.72,90.91 230.11,89.67 230.5,88.45 230.89,87.26 231.29,86.09 231.68,84.94 232.07,83.82 232.46,82.72 232.86,81.64 233.25,80.58 233.64,79.55 234.03,78.53 234.43,77.54 234.82,76.56 235.21,75.61 235.6,74.68 235.99,73.77 236.39,72.87 236.78,72 237.17,71.15 237.56,70.32 237.96,69.51 238.35,68.72 238.74,67.95 239.13,67.21 239.53,66.48 239.92,65.78 240.31,65.09 240.7,64.43 241.1,63.79 241.49,63.18 241.88,62.59 242.27,62.01 242.67,61.46 243.06,60.94 243.45,60.44 243.84,59.97 244.23,59.51 244.63,59.08 245.02,58.67 245.41,58.28 245.8,57.92 246.2,57.57 246.59,57.25 246.98,56.95 247.37,56.67 247.77,56.41 248.16,56.17 248.55,55.95 248.94,55.74 249.34,55.55 249.73,55.38 250.12,55.22 250.51,55.08 250.91,54.94 251.3,54.83 251.69,54.72 252.08,54.63 252.47,54.54 252.87,54.46 253.26,54.4 253.65,54.34 254.04,54.28 254.44,54.24 254.83,54.2 255.22,54.16 255.61,54.13 256.01,54.1 256.4,54.08 256.79,54.06 257.18,54.04 257.58,54.03 257.97,54.02 258.36,54.01 258.75,54 259.15,53.99 259.54,53.98 259.93,53.98 260.32,53.97 260.71,53.97" stroke-dasharray="none" stroke="rgb(31,120,180)" stroke-width="0.75" opacity="1" stroke-opacity="1" fill="none"/>
          </g>
          <g id="Fig:densplot_01.xyplot.lines.group.5.panel.1.1.1">
            <polyline id="Fig:densplot_01.xyplot.lines.group.5.panel.1.1.1.1" points="59.11,53.98 59.51,53.99 59.91,54 60.3,54.01 60.7,54.02 61.1,54.03 61.49,54.04 61.89,54.06 62.29,54.08 62.68,54.1 63.08,54.13 63.48,54.16 63.87,54.2 64.27,54.24 64.67,54.29 65.06,54.34 65.46,54.4 65.86,54.47 66.25,54.55 66.65,54.63 67.05,54.73 67.44,54.84 67.84,54.96 68.24,55.09 68.63,55.23 69.03,55.39 69.43,55.57 69.82,55.75 70.22,55.96 70.62,56.17 71.01,56.41 71.41,56.67 71.81,56.94 72.2,57.22 72.6,57.53 73,57.85 73.39,58.19 73.79,58.55 74.19,58.92 74.58,59.3 74.98,59.7 75.38,60.12 75.77,60.54 76.17,60.97 76.57,61.42 76.96,61.87 77.36,62.34 77.76,62.8 78.15,63.27 78.55,63.74 78.95,64.22 79.34,64.69 79.74,65.16 80.14,65.63 80.53,66.09 80.93,66.54 81.33,66.99 81.72,67.44 82.12,67.87 82.52,68.29 82.91,68.7 83.31,69.11 83.71,69.5 84.1,69.88 84.5,70.25 84.9,70.61 85.29,70.95 85.69,71.29 86.09,71.62 86.48,71.94 86.88,72.24 87.28,72.54 87.67,72.84 88.07,73.12 88.47,73.4 88.86,73.68 89.26,73.95 89.66,74.21 90.05,74.48 90.45,74.74 90.85,75 91.24,75.26 91.64,75.52 92.04,75.78 92.43,76.04 92.83,76.31 93.23,76.58 93.62,76.85 94.02,77.12 94.42,77.4 94.81,77.69 95.21,77.98 95.61,78.28 96,78.58 96.4,78.89 96.8,79.21 97.19,79.53 97.59,79.86 97.99,80.2 98.38,80.55 98.78,80.9 99.18,81.26 99.57,81.62 99.97,82 100.37,82.38 100.76,82.76 101.16,83.16 101.56,83.55 101.95,83.96 102.35,84.37 102.75,84.79 103.14,85.21 103.54,85.64 103.94,86.07 104.33,86.51 104.73,86.95 105.13,87.39 105.52,87.84 105.92,88.29 106.32,88.75 106.71,89.21 107.11,89.67 107.51,90.13 107.9,90.59 108.3,91.06 108.7,91.52 109.09,91.99 109.49,92.46 109.89,92.92 110.28,93.39 110.68,93.86 111.08,94.32 111.47,94.78 111.87,95.25 112.27,95.7 112.66,96.16 113.06,96.61 113.46,97.05 113.85,97.49 114.25,97.93 114.65,98.35 115.04,98.77 115.44,99.18 115.84,99.58 116.23,99.97 116.63,100.35 117.03,100.71 117.42,101.07 117.82,101.4 118.22,101.73 118.61,102.03 119.01,102.32 119.41,102.6 119.8,102.85 120.2,103.08 120.6,103.29 120.99,103.49 121.39,103.66 121.79,103.81 122.18,103.94 122.58,104.05 122.98,104.14 123.37,104.2 123.77,104.24 124.17,104.26 124.56,104.26 124.96,104.24 125.36,104.19 125.75,104.13 126.15,104.04 126.55,103.94 126.94,103.81 127.34,103.67 127.74,103.51 128.13,103.33 128.53,103.13 128.93,102.92 129.32,102.69 129.72,102.45 130.12,102.19 130.51,101.92 130.91,101.63 131.3,101.33 131.7,101.02 132.1,100.69 132.49,100.36 132.89,100.01 133.29,99.65 133.68,99.28 134.08,98.89 134.48,98.5 134.87,98.1 135.27,97.68 135.67,97.26 136.06,96.82 136.46,96.38 136.86,95.92 137.25,95.46 137.65,94.98 138.05,94.5 138.44,94.01 138.84,93.5 139.24,92.99 139.63,92.47 140.03,91.94 140.43,91.4 140.82,90.86 141.22,90.3 141.62,89.74 142.01,89.17 142.41,88.59 142.81,88.01 143.2,87.42 143.6,86.83 144,86.23 144.39,85.63 144.79,85.02 145.19,84.41 145.58,83.8 145.98,83.18 146.38,82.57 146.77,81.95 147.17,81.34 147.57,80.73 147.96,80.11 148.36,79.5 148.76,78.9 149.15,78.29 149.55,77.7 149.95,77.1 150.34,76.52 150.74,75.93 151.14,75.36 151.53,74.79 151.93,74.23 152.33,73.68 152.72,73.14 153.12,72.6 153.52,72.08 153.91,71.57 154.31,71.06 154.71,70.57 155.1,70.08 155.5,69.61 155.9,69.15 156.29,68.7 156.69,68.26 157.09,67.83 157.48,67.42 157.88,67.01 158.28,66.62 158.67,66.24 159.07,65.87 159.47,65.51 159.86,65.17 160.26,64.83 160.66,64.51 161.05,64.2 161.45,63.91 161.85,63.62 162.24,63.35 162.64,63.09 163.04,62.84 163.43,62.6 163.83,62.38 164.23,62.16 164.62,61.96 165.02,61.77 165.42,61.59 165.81,61.42 166.21,61.26 166.61,61.12 167,60.98 167.4,60.86 167.8,60.75 168.19,60.64 168.59,60.55 168.99,60.47 169.38,60.39 169.78,60.33 170.18,60.28 170.57,60.24 170.97,60.21 171.37,60.18 171.76,60.17 172.16,60.17 172.56,60.18 172.95,60.2 173.35,60.23 173.75,60.27 174.14,60.32 174.54,60.39 174.94,60.46 175.33,60.55 175.73,60.65 176.13,60.76 176.52,60.89 176.92,61.04 177.32,61.2 177.71,61.37 178.11,61.56 178.51,61.78 178.9,62.01 179.3,62.26 179.7,62.54 180.09,62.84 180.49,63.17 180.89,63.52 181.28,63.9 181.68,64.32 182.08,64.76 182.47,65.25 182.87,65.78 183.27,66.34 183.66,66.95 184.06,67.6 184.46,68.31 184.85,69.08 185.25,69.89 185.65,70.76 186.04,71.7 186.44,72.72 186.84,73.8 187.23,74.96 187.63,76.19 188.03,77.5 188.42,78.91 188.82,80.41 189.22,82 189.61,83.67 190.01,85.46 190.41,87.36 190.8,89.36 191.2,91.46 191.6,93.66 191.99,95.99 192.39,98.43 192.79,100.99 193.18,103.65 193.58,106.41 193.98,109.3 194.37,112.31 194.77,115.41 195.17,118.61 195.56,121.9 195.96,125.3 196.36,128.79 196.75,132.35 197.15,135.98 197.55,139.66 197.94,143.41 198.34,147.21 198.74,151.03 199.13,154.86 199.53,158.71 199.93,162.55 200.32,166.37 200.72,170.15 201.12,173.89 201.51,177.58 201.91,181.16 202.31,184.65 202.7,188.03 203.1,191.3 203.5,194.43 203.89,197.38 204.29,200.15 204.69,202.76 205.08,205.18 205.48,207.4 205.88,209.35 206.27,211.07 206.67,212.58 207.07,213.84 207.46,214.86 207.86,215.57 208.26,216.02 208.65,216.23 209.05,216.18 209.45,215.86 209.84,215.23 210.24,214.36 210.64,213.24 211.03,211.9 211.43,210.3 211.83,208.43 212.22,206.35 212.62,204.08 213.02,201.62 213.41,198.97 213.81,196.12 214.21,193.13 214.6,190 215,186.76 215.4,183.4 215.79,179.94 216.19,176.4 216.59,172.81 216.98,169.17 217.38,165.49 217.78,161.8 218.17,158.11 218.57,154.42 218.97,150.75 219.36,147.12 219.76,143.54 220.16,140.01 220.55,136.54 220.95,133.14 221.35,129.82 221.74,126.6 222.14,123.46 222.54,120.4 222.93,117.44 223.33,114.6 223.73,111.86 224.12,109.22 224.52,106.68 224.92,104.24 225.31,101.92 225.71,99.7 226.1,97.58 226.5,95.55 226.9,93.61 227.29,91.79 227.69,90.06 228.09,88.4 228.48,86.83 228.88,85.33 229.28,83.93 229.67,82.59 230.07,81.32 230.47,80.12 230.86,78.97 231.26,77.89 231.66,76.86 232.05,75.89 232.45,74.95 232.85,74.06 233.24,73.22 233.64,72.41 234.04,71.64 234.43,70.9 234.83,70.18 235.23,69.5 235.62,68.85 236.02,68.21 236.42,67.6 236.81,67 237.21,66.43 237.61,65.88 238,65.34 238.4,64.81 238.8,64.3 239.19,63.8 239.59,63.32 239.99,62.85 240.38,62.4 240.78,61.95 241.18,61.52 241.57,61.1 241.97,60.69 242.37,60.3 242.76,59.92 243.16,59.55 243.56,59.19 243.95,58.85 244.35,58.52 244.75,58.2 245.14,57.9 245.54,57.61 245.94,57.33 246.33,57.07 246.73,56.82 247.13,56.58 247.52,56.36 247.92,56.15 248.32,55.96 248.71,55.77 249.11,55.6 249.51,55.44 249.9,55.3 250.3,55.16 250.7,55.03 251.09,54.92 251.49,54.82 251.89,54.72 252.28,54.63 252.68,54.55 253.08,54.48 253.47,54.42 253.87,54.36 254.27,54.31 254.66,54.26 255.06,54.22 255.46,54.19 255.85,54.15 256.25,54.12 256.65,54.1 257.04,54.08 257.44,54.06 257.84,54.04 258.23,54.03 258.63,54.02 259.03,54.01 259.42,54 259.82,53.99 260.22,53.99 260.61,53.98 261.01,53.98 261.41,53.97 261.8,53.97" stroke-dasharray="none" stroke="rgb(31,120,180)" stroke-width="0.75" opacity="1" stroke-opacity="1" fill="none"/>
          </g>
          <g id="Fig:densplot_01.xyplot.lines.group.6.panel.1.1.1">
            <polyline id="Fig:densplot_01.xyplot.lines.group.6.panel.1.1.1.1" points="59.07,53.98 59.47,53.99 59.86,54 60.26,54.01 60.66,54.02 61.05,54.03 61.45,54.04 61.85,54.06 62.24,54.08 62.64,54.1 63.04,54.13 63.43,54.16 63.83,54.19 64.23,54.24 64.62,54.28 65.02,54.33 65.42,54.4 65.81,54.46 66.21,54.54 66.6,54.63 67,54.72 67.4,54.83 67.79,54.95 68.19,55.08 68.59,55.23 68.98,55.39 69.38,55.57 69.78,55.76 70.17,55.97 70.57,56.19 70.97,56.43 71.36,56.69 71.76,56.97 72.16,57.26 72.55,57.58 72.95,57.91 73.35,58.26 73.74,58.63 74.14,59.01 74.53,59.41 74.93,59.82 75.33,60.25 75.72,60.7 76.12,61.15 76.52,61.61 76.91,62.09 77.31,62.57 77.71,63.05 78.1,63.54 78.5,64.03 78.9,64.53 79.29,65.02 79.69,65.51 80.09,65.99 80.48,66.47 80.88,66.94 81.28,67.4 81.67,67.86 82.07,68.3 82.46,68.73 82.86,69.15 83.26,69.56 83.65,69.96 84.05,70.34 84.45,70.71 84.84,71.06 85.24,71.4 85.64,71.73 86.03,72.05 86.43,72.36 86.83,72.65 87.22,72.94 87.62,73.22 88.02,73.49 88.41,73.75 88.81,74 89.21,74.25 89.6,74.5 90,74.75 90.39,74.99 90.79,75.23 91.19,75.47 91.58,75.71 91.98,75.95 92.38,76.19 92.77,76.44 93.17,76.69 93.57,76.94 93.96,77.2 94.36,77.46 94.76,77.73 95.15,78 95.55,78.28 95.95,78.57 96.34,78.86 96.74,79.17 97.13,79.47 97.53,79.79 97.93,80.11 98.32,80.45 98.72,80.79 99.12,81.13 99.51,81.49 99.91,81.85 100.31,82.23 100.7,82.61 101.1,83 101.5,83.4 101.89,83.8 102.29,84.22 102.69,84.64 103.08,85.07 103.48,85.51 103.88,85.95 104.27,86.4 104.67,86.86 105.06,87.33 105.46,87.8 105.86,88.28 106.25,88.77 106.65,89.26 107.05,89.75 107.44,90.25 107.84,90.75 108.24,91.25 108.63,91.75 109.03,92.26 109.43,92.76 109.82,93.27 110.22,93.77 110.62,94.26 111.01,94.76 111.41,95.24 111.81,95.72 112.2,96.19 112.6,96.65 112.99,97.11 113.39,97.55 113.79,97.97 114.18,98.39 114.58,98.78 114.98,99.17 115.37,99.54 115.77,99.89 116.17,100.22 116.56,100.53 116.96,100.83 117.36,101.1 117.75,101.36 118.15,101.6 118.55,101.82 118.94,102.02 119.34,102.2 119.74,102.36 120.13,102.5 120.53,102.63 120.92,102.74 121.32,102.83 121.72,102.91 122.11,102.97 122.51,103.01 122.91,103.04 123.3,103.06 123.7,103.06 124.1,103.05 124.49,103.02 124.89,102.99 125.29,102.94 125.68,102.88 126.08,102.81 126.48,102.72 126.87,102.63 127.27,102.53 127.67,102.41 128.06,102.28 128.46,102.14 128.85,102 129.25,101.84 129.65,101.66 130.04,101.48 130.44,101.28 130.84,101.07 131.23,100.85 131.63,100.61 132.03,100.36 132.42,100.09 132.82,99.82 133.22,99.52 133.61,99.21 134.01,98.89 134.41,98.55 134.8,98.2 135.2,97.83 135.6,97.44 135.99,97.04 136.39,96.62 136.78,96.19 137.18,95.74 137.58,95.28 137.97,94.81 138.37,94.32 138.77,93.82 139.16,93.3 139.56,92.77 139.96,92.23 140.35,91.68 140.75,91.12 141.15,90.55 141.54,89.97 141.94,89.39 142.34,88.8 142.73,88.2 143.13,87.59 143.53,86.98 143.92,86.37 144.32,85.75 144.71,85.14 145.11,84.52 145.51,83.9 145.9,83.28 146.3,82.66 146.7,82.05 147.09,81.44 147.49,80.83 147.89,80.22 148.28,79.62 148.68,79.03 149.08,78.44 149.47,77.85 149.87,77.28 150.27,76.71 150.66,76.14 151.06,75.59 151.46,75.04 151.85,74.5 152.25,73.97 152.64,73.45 153.04,72.93 153.44,72.43 153.83,71.93 154.23,71.44 154.63,70.96 155.02,70.5 155.42,70.04 155.82,69.59 156.21,69.15 156.61,68.72 157.01,68.3 157.4,67.89 157.8,67.49 158.2,67.1 158.59,66.72 158.99,66.35 159.39,65.99 159.78,65.64 160.18,65.31 160.57,64.98 160.97,64.67 161.37,64.37 161.76,64.07 162.16,63.79 162.56,63.52 162.95,63.27 163.35,63.02 163.75,62.79 164.14,62.56 164.54,62.35 164.94,62.15 165.33,61.96 165.73,61.79 166.13,61.62 166.52,61.46 166.92,61.32 167.32,61.18 167.71,61.06 168.11,60.94 168.5,60.84 168.9,60.74 169.3,60.66 169.69,60.58 170.09,60.51 170.49,60.46 170.88,60.41 171.28,60.37 171.68,60.34 172.07,60.31 172.47,60.3 172.87,60.3 173.26,60.3 173.66,60.32 174.06,60.34 174.45,60.37 174.85,60.42 175.25,60.47 175.64,60.53 176.04,60.61 176.43,60.7 176.83,60.8 177.23,60.92 177.62,61.05 178.02,61.19 178.42,61.35 178.81,61.53 179.21,61.73 179.61,61.95 180,62.18 180.4,62.45 180.8,62.74 181.19,63.05 181.59,63.39 181.99,63.75 182.38,64.16 182.78,64.6 183.18,65.07 183.57,65.58 183.97,66.13 184.36,66.74 184.76,67.38 185.16,68.08 185.55,68.82 185.95,69.63 186.35,70.5 186.74,71.43 187.14,72.42 187.54,73.48 187.93,74.62 188.33,75.85 188.73,77.15 189.12,78.53 189.52,79.99 189.92,81.56 190.31,83.23 190.71,85 191.11,86.86 191.5,88.82 191.9,90.9 192.29,93.1 192.69,95.41 193.09,97.82 193.48,100.34 193.88,103 194.28,105.77 194.67,108.66 195.07,111.65 195.47,114.75 195.86,117.98 196.26,121.32 196.66,124.76 197.05,128.28 197.45,131.9 197.85,135.62 198.24,139.41 198.64,143.27 199.03,147.18 199.43,151.14 199.83,155.14 200.22,159.16 200.62,163.2 201.02,167.22 201.41,171.24 201.81,175.21 202.21,179.13 202.6,182.98 203,186.76 203.4,190.43 203.79,193.97 204.19,197.37 204.59,200.62 204.98,203.71 205.38,206.62 205.78,209.28 206.17,211.74 206.57,213.98 206.96,215.99 207.36,217.73 207.76,219.17 208.15,220.34 208.55,221.25 208.95,221.89 209.34,222.22 209.74,222.22 210.14,221.94 210.53,221.39 210.93,220.57 211.33,219.43 211.72,218 212.12,216.31 212.52,214.38 212.91,212.21 213.31,209.78 213.71,207.12 214.1,204.27 214.5,201.23 214.89,198.03 215.29,194.65 215.69,191.13 216.08,187.49 216.48,183.75 216.88,179.93 217.27,176.02 217.67,172.06 218.07,168.07 218.46,164.06 218.86,160.04 219.26,156.03 219.65,152.04 220.05,148.09 220.45,144.19 220.84,140.33 221.24,136.56 221.64,132.87 222.03,129.26 222.43,125.73 222.82,122.3 223.22,118.99 223.62,115.79 224.01,112.7 224.41,109.71 224.81,106.83 225.2,104.09 225.6,101.47 226,98.96 226.39,96.55 226.79,94.26 227.19,92.1 227.58,90.04 227.98,88.09 228.38,86.23 228.77,84.47 229.17,82.83 229.57,81.27 229.96,79.8 230.36,78.4 230.75,77.09 231.15,75.87 231.55,74.71 231.94,73.62 232.34,72.58 232.74,71.61 233.13,70.7 233.53,69.84 233.93,69.02 234.32,68.25 234.72,67.52 235.12,66.83 235.51,66.18 235.91,65.56 236.31,64.96 236.7,64.4 237.1,63.86 237.5,63.35 237.89,62.86 238.29,62.39 238.68,61.94 239.08,61.51 239.48,61.09 239.87,60.69 240.27,60.31 240.67,59.94 241.06,59.59 241.46,59.25 241.86,58.92 242.25,58.61 242.65,58.31 243.05,58.02 243.44,57.75 243.84,57.49 244.24,57.23 244.63,57 245.03,56.77 245.43,56.56 245.82,56.35 246.22,56.16 246.61,55.98 247.01,55.81 247.41,55.64 247.8,55.49 248.2,55.35 248.6,55.22 248.99,55.1 249.39,54.99 249.79,54.89 250.18,54.79 250.58,54.7 250.98,54.62 251.37,54.55 251.77,54.48 252.17,54.42 252.56,54.37 252.96,54.32 253.36,54.27 253.75,54.23 254.15,54.2 254.54,54.17 254.94,54.14 255.34,54.11 255.73,54.09 256.13,54.07 256.53,54.06 256.92,54.04 257.32,54.03 257.72,54.02 258.11,54.01 258.51,54 258.91,53.99 259.3,53.99 259.7,53.98 260.1,53.98 260.49,53.97 260.89,53.97 261.29,53.97 261.68,53.97" stroke-dasharray="none" stroke="rgb(31,120,180)" stroke-width="0.75" opacity="1" stroke-opacity="1" fill="none"/>
          </g>
          <g id="Fig:densplot_01.xyplot.lines.group.7.panel.1.1.1">
            <polyline id="Fig:densplot_01.xyplot.lines.group.7.panel.1.1.1.1" points="61.5,53.98 61.89,53.98 62.28,53.99 62.67,54 63.05,54 63.44,54.02 63.83,54.03 64.21,54.04 64.6,54.06 64.99,54.09 65.37,54.11 65.76,54.14 66.15,54.18 66.54,54.22 66.92,54.26 67.31,54.32 67.7,54.38 68.08,54.45 68.47,54.53 68.86,54.62 69.24,54.72 69.63,54.83 70.02,54.95 70.4,55.09 70.79,55.24 71.18,55.41 71.57,55.59 71.95,55.78 72.34,55.99 72.73,56.22 73.11,56.46 73.5,56.72 73.89,57 74.27,57.28 74.66,57.59 75.05,57.9 75.44,58.23 75.82,58.58 76.21,58.93 76.6,59.29 76.98,59.66 77.37,60.04 77.76,60.42 78.14,60.8 78.53,61.19 78.92,61.58 79.31,61.96 79.69,62.34 80.08,62.72 80.47,63.09 80.85,63.45 81.24,63.81 81.63,64.15 82.01,64.49 82.4,64.81 82.79,65.12 83.17,65.43 83.56,65.72 83.95,65.99 84.34,66.26 84.72,66.51 85.11,66.75 85.5,66.99 85.88,67.21 86.27,67.42 86.66,67.62 87.04,67.82 87.43,68.01 87.82,68.19 88.21,68.36 88.59,68.53 88.98,68.7 89.37,68.86 89.75,69.02 90.14,69.18 90.53,69.33 90.91,69.48 91.3,69.64 91.69,69.79 92.07,69.94 92.46,70.09 92.85,70.24 93.24,70.4 93.62,70.55 94.01,70.71 94.4,70.87 94.78,71.02 95.17,71.19 95.56,71.35 95.94,71.52 96.33,71.68 96.72,71.85 97.11,72.03 97.49,72.2 97.88,72.38 98.27,72.56 98.65,72.74 99.04,72.93 99.43,73.12 99.81,73.31 100.2,73.51 100.59,73.71 100.98,73.91 101.36,74.11 101.75,74.32 102.14,74.53 102.52,74.75 102.91,74.97 103.3,75.2 103.68,75.43 104.07,75.67 104.46,75.91 104.84,76.16 105.23,76.41 105.62,76.67 106.01,76.93 106.39,77.21 106.78,77.48 107.17,77.77 107.55,78.06 107.94,78.36 108.33,78.66 108.71,78.98 109.1,79.3 109.49,79.62 109.88,79.95 110.26,80.29 110.65,80.63 111.04,80.98 111.42,81.33 111.81,81.69 112.2,82.05 112.58,82.41 112.97,82.78 113.36,83.14 113.74,83.51 114.13,83.88 114.52,84.25 114.91,84.61 115.29,84.97 115.68,85.33 116.07,85.68 116.45,86.03 116.84,86.38 117.23,86.72 117.61,87.05 118,87.37 118.39,87.69 118.78,88 119.16,88.3 119.55,88.59 119.94,88.87 120.32,89.15 120.71,89.41 121.1,89.67 121.48,89.92 121.87,90.16 122.26,90.39 122.65,90.62 123.03,90.84 123.42,91.05 123.81,91.25 124.19,91.45 124.58,91.64 124.97,91.83 125.35,92.01 125.74,92.18 126.13,92.35 126.51,92.51 126.9,92.67 127.29,92.82 127.68,92.97 128.06,93.11 128.45,93.25 128.84,93.38 129.22,93.5 129.61,93.62 130,93.73 130.38,93.84 130.77,93.94 131.16,94.04 131.55,94.13 131.93,94.21 132.32,94.29 132.71,94.36 133.09,94.43 133.48,94.49 133.87,94.55 134.25,94.61 134.64,94.66 135.03,94.71 135.42,94.76 135.8,94.8 136.19,94.85 136.58,94.89 136.96,94.93 137.35,94.97 137.74,95.01 138.12,95.04 138.51,95.07 138.9,95.11 139.28,95.13 139.67,95.16 140.06,95.18 140.45,95.2 140.83,95.21 141.22,95.22 141.61,95.22 141.99,95.21 142.38,95.19 142.77,95.17 143.15,95.14 143.54,95.1 143.93,95.05 144.32,94.98 144.7,94.92 145.09,94.84 145.48,94.75 145.86,94.66 146.25,94.55 146.64,94.44 147.02,94.33 147.41,94.21 147.8,94.08 148.18,93.95 148.57,93.82 148.96,93.68 149.35,93.55 149.73,93.41 150.12,93.27 150.51,93.14 150.89,93.01 151.28,92.87 151.67,92.74 152.05,92.62 152.44,92.49 152.83,92.37 153.22,92.24 153.6,92.12 153.99,92 154.38,91.88 154.76,91.76 155.15,91.64 155.54,91.52 155.92,91.4 156.31,91.28 156.7,91.15 157.09,91.02 157.47,90.88 157.86,90.74 158.25,90.6 158.63,90.45 159.02,90.3 159.41,90.15 159.79,89.99 160.18,89.83 160.57,89.67 160.95,89.51 161.34,89.34 161.73,89.18 162.12,89.02 162.5,88.86 162.89,88.7 163.28,88.55 163.66,88.4 164.05,88.26 164.44,88.13 164.82,88.01 165.21,87.9 165.6,87.8 165.99,87.71 166.37,87.64 166.76,87.58 167.15,87.54 167.53,87.51 167.92,87.49 168.31,87.49 168.69,87.51 169.08,87.55 169.47,87.61 169.85,87.68 170.24,87.77 170.63,87.88 171.02,88 171.4,88.15 171.79,88.32 172.18,88.51 172.56,88.72 172.95,88.95 173.34,89.2 173.72,89.48 174.11,89.78 174.5,90.11 174.89,90.46 175.27,90.85 175.66,91.26 176.05,91.7 176.43,92.17 176.82,92.67 177.21,93.21 177.59,93.78 177.98,94.39 178.37,95.03 178.76,95.7 179.14,96.41 179.53,97.16 179.92,97.95 180.3,98.78 180.69,99.64 181.08,100.53 181.46,101.47 181.85,102.44 182.24,103.45 182.62,104.49 183.01,105.57 183.4,106.68 183.79,107.82 184.17,109 184.56,110.2 184.95,111.44 185.33,112.7 185.72,113.99 186.11,115.31 186.49,116.64 186.88,118 187.27,119.38 187.66,120.78 188.04,122.2 188.43,123.63 188.82,125.07 189.2,126.52 189.59,127.98 189.98,129.44 190.36,130.9 190.75,132.36 191.14,133.81 191.52,135.26 191.91,136.69 192.3,138.1 192.69,139.49 193.07,140.86 193.46,142.21 193.85,143.52 194.23,144.79 194.62,146.03 195.01,147.22 195.39,148.37 195.78,149.48 196.17,150.52 196.56,151.51 196.94,152.44 197.33,153.32 197.72,154.14 198.1,154.88 198.49,155.56 198.88,156.17 199.26,156.72 199.65,157.2 200.04,157.61 200.43,157.94 200.81,158.21 201.2,158.41 201.59,158.54 201.97,158.62 202.36,158.61 202.75,158.54 203.13,158.41 203.52,158.23 203.91,157.99 204.29,157.68 204.68,157.32 205.07,156.9 205.46,156.44 205.84,155.93 206.23,155.37 206.62,154.76 207,154.11 207.39,153.42 207.78,152.69 208.16,151.92 208.55,151.11 208.94,150.27 209.33,149.39 209.71,148.48 210.1,147.54 210.49,146.57 210.87,145.56 211.26,144.52 211.65,143.45 212.03,142.36 212.42,141.24 212.81,140.08 213.19,138.9 213.58,137.69 213.97,136.46 214.36,135.21 214.74,133.92 215.13,132.61 215.52,131.29 215.9,129.94 216.29,128.57 216.68,127.18 217.06,125.78 217.45,124.36 217.84,122.93 218.23,121.49 218.61,120.05 219,118.59 219.39,117.13 219.77,115.67 220.16,114.21 220.55,112.75 220.93,111.3 221.32,109.86 221.71,108.42 222.1,107 222.48,105.59 222.87,104.19 223.26,102.81 223.64,101.46 224.03,100.12 224.42,98.8 224.8,97.5 225.19,96.23 225.58,94.99 225.96,93.77 226.35,92.57 226.74,91.4 227.13,90.25 227.51,89.14 227.9,88.04 228.29,86.98 228.67,85.93 229.06,84.92 229.45,83.93 229.83,82.96 230.22,82.02 230.61,81.1 231,80.2 231.38,79.32 231.77,78.47 232.16,77.63 232.54,76.81 232.93,76.01 233.32,75.22 233.7,74.45 234.09,73.7 234.48,72.96 234.86,72.23 235.25,71.51 235.64,70.81 236.03,70.12 236.41,69.44 236.8,68.77 237.19,68.11 237.57,67.47 237.96,66.84 238.35,66.21 238.73,65.6 239.12,65 239.51,64.41 239.9,63.84 240.28,63.28 240.67,62.74 241.06,62.2 241.44,61.69 241.83,61.19 242.22,60.71 242.6,60.24 242.99,59.79 243.38,59.36 243.77,58.95 244.15,58.56 244.54,58.19 244.93,57.83 245.31,57.5 245.7,57.18 246.09,56.89 246.47,56.61 246.86,56.35 247.25,56.11 247.63,55.89 248.02,55.69 248.41,55.5 248.8,55.33 249.18,55.17 249.57,55.03 249.96,54.9 250.34,54.78 250.73,54.68 251.12,54.58 251.5,54.5 251.89,54.42 252.28,54.36 252.67,54.3 253.05,54.25 253.44,54.21 253.83,54.17 254.21,54.14 254.6,54.11 254.99,54.08 255.37,54.06 255.76,54.04 256.15,54.03 256.53,54.02 256.92,54.01 257.31,54 257.7,53.99 258.08,53.98 258.47,53.98 258.86,53.97 259.24,53.97" stroke-dasharray="none" stroke="rgb(31,120,180)" stroke-width="0.75" opacity="1" stroke-opacity="1" fill="none"/>
          </g>
          <g id="Fig:densplot_01.xyplot.lines.group.8.panel.1.1.1">
            <polyline id="Fig:densplot_01.xyplot.lines.group.8.panel.1.1.1.1" points="60.11,53.98 60.5,53.98 60.9,53.98 61.29,53.99 61.68,54 62.07,54.01 62.47,54.02 62.86,54.03 63.25,54.05 63.65,54.07 64.04,54.09 64.43,54.11 64.82,54.14 65.22,54.17 65.61,54.21 66,54.26 66.39,54.31 66.79,54.36 67.18,54.43 67.57,54.5 67.96,54.58 68.36,54.68 68.75,54.78 69.14,54.9 69.54,55.02 69.93,55.16 70.32,55.32 70.71,55.49 71.11,55.67 71.5,55.87 71.89,56.09 72.28,56.32 72.68,56.57 73.07,56.84 73.46,57.13 73.85,57.43 74.25,57.75 74.64,58.08 75.03,58.44 75.42,58.81 75.82,59.19 76.21,59.59 76.6,60 77,60.42 77.39,60.85 77.78,61.29 78.17,61.74 78.57,62.19 78.96,62.65 79.35,63.11 79.74,63.57 80.14,64.04 80.53,64.49 80.92,64.95 81.31,65.4 81.71,65.84 82.1,66.28 82.49,66.7 82.89,67.11 83.28,67.52 83.67,67.91 84.06,68.29 84.46,68.66 84.85,69.01 85.24,69.35 85.63,69.67 86.03,69.99 86.42,70.29 86.81,70.58 87.2,70.86 87.6,71.12 87.99,71.38 88.38,71.63 88.77,71.87 89.17,72.1 89.56,72.32 89.95,72.54 90.35,72.76 90.74,72.96 91.13,73.17 91.52,73.38 91.92,73.58 92.31,73.78 92.7,73.98 93.09,74.19 93.49,74.39 93.88,74.6 94.27,74.81 94.66,75.02 95.06,75.24 95.45,75.46 95.84,75.69 96.24,75.92 96.63,76.15 97.02,76.39 97.41,76.64 97.81,76.89 98.2,77.15 98.59,77.41 98.98,77.68 99.38,77.95 99.77,78.24 100.16,78.52 100.55,78.81 100.95,79.11 101.34,79.42 101.73,79.73 102.13,80.04 102.52,80.36 102.91,80.69 103.3,81.03 103.7,81.36 104.09,81.71 104.48,82.06 104.87,82.42 105.27,82.78 105.66,83.14 106.05,83.52 106.44,83.89 106.84,84.28 107.23,84.67 107.62,85.06 108.01,85.46 108.41,85.86 108.8,86.27 109.19,86.68 109.59,87.09 109.98,87.51 110.37,87.93 110.76,88.36 111.16,88.78 111.55,89.21 111.94,89.64 112.33,90.07 112.73,90.49 113.12,90.92 113.51,91.34 113.9,91.76 114.3,92.18 114.69,92.59 115.08,92.99 115.48,93.39 115.87,93.78 116.26,94.17 116.65,94.54 117.05,94.9 117.44,95.26 117.83,95.6 118.22,95.93 118.62,96.25 119.01,96.55 119.4,96.84 119.79,97.12 120.19,97.38 120.58,97.63 120.97,97.87 121.36,98.09 121.76,98.3 122.15,98.49 122.54,98.67 122.94,98.84 123.33,98.99 123.72,99.13 124.11,99.26 124.51,99.38 124.9,99.48 125.29,99.57 125.68,99.65 126.08,99.72 126.47,99.78 126.86,99.82 127.25,99.86 127.65,99.88 128.04,99.89 128.43,99.89 128.83,99.88 129.22,99.86 129.61,99.82 130,99.77 130.4,99.71 130.79,99.63 131.18,99.55 131.57,99.44 131.97,99.33 132.36,99.2 132.75,99.06 133.14,98.9 133.54,98.72 133.93,98.53 134.32,98.33 134.71,98.11 135.11,97.88 135.5,97.63 135.89,97.37 136.29,97.1 136.68,96.81 137.07,96.51 137.46,96.2 137.86,95.87 138.25,95.54 138.64,95.19 139.03,94.84 139.43,94.48 139.82,94.11 140.21,93.73 140.6,93.34 141,92.95 141.39,92.56 141.78,92.16 142.18,91.76 142.57,91.36 142.96,90.95 143.35,90.54 143.75,90.13 144.14,89.72 144.53,89.31 144.92,88.89 145.32,88.48 145.71,88.06 146.1,87.64 146.49,87.23 146.89,86.81 147.28,86.39 147.67,85.96 148.07,85.54 148.46,85.12 148.85,84.69 149.24,84.26 149.64,83.83 150.03,83.4 150.42,82.96 150.81,82.53 151.21,82.09 151.6,81.65 151.99,81.22 152.38,80.78 152.78,80.34 153.17,79.9 153.56,79.47 153.95,79.04 154.35,78.61 154.74,78.18 155.13,77.76 155.53,77.34 155.92,76.93 156.31,76.53 156.7,76.13 157.1,75.74 157.49,75.36 157.88,74.99 158.27,74.63 158.67,74.27 159.06,73.94 159.45,73.61 159.84,73.29 160.24,72.99 160.63,72.7 161.02,72.42 161.42,72.16 161.81,71.91 162.2,71.67 162.59,71.45 162.99,71.25 163.38,71.06 163.77,70.88 164.16,70.72 164.56,70.57 164.95,70.45 165.34,70.33 165.73,70.24 166.13,70.15 166.52,70.09 166.91,70.04 167.3,70.01 167.7,69.99 168.09,69.99 168.48,70 168.88,70.04 169.27,70.09 169.66,70.16 170.05,70.24 170.45,70.34 170.84,70.46 171.23,70.6 171.62,70.76 172.02,70.93 172.41,71.12 172.8,71.34 173.19,71.58 173.59,71.85 173.98,72.13 174.37,72.44 174.77,72.78 175.16,73.14 175.55,73.54 175.94,73.96 176.34,74.41 176.73,74.9 177.12,75.43 177.51,75.99 177.91,76.59 178.3,77.23 178.69,77.92 179.08,78.65 179.48,79.42 179.87,80.24 180.26,81.11 180.66,82.03 181.05,83 181.44,84.03 181.83,85.1 182.23,86.23 182.62,87.41 183.01,88.66 183.4,89.96 183.8,91.31 184.19,92.72 184.58,94.18 184.97,95.7 185.37,97.28 185.76,98.9 186.15,100.57 186.54,102.29 186.94,104.07 187.33,105.89 187.72,107.75 188.12,109.65 188.51,111.59 188.9,113.57 189.29,115.57 189.69,117.61 190.08,119.66 190.47,121.74 190.86,123.83 191.26,125.93 191.65,128.04 192.04,130.15 192.43,132.26 192.83,134.36 193.22,136.44 193.61,138.51 194.01,140.55 194.4,142.57 194.79,144.55 195.18,146.48 195.58,148.37 195.97,150.22 196.36,152.01 196.75,153.73 197.15,155.39 197.54,156.98 197.93,158.5 198.32,159.94 198.72,161.29 199.11,162.55 199.5,163.73 199.89,164.82 200.29,165.82 200.68,166.71 201.07,167.5 201.47,168.2 201.86,168.8 202.25,169.31 202.64,169.72 203.04,170.01 203.43,170.21 203.82,170.33 204.21,170.35 204.61,170.28 205,170.11 205.39,169.86 205.78,169.53 206.18,169.13 206.57,168.64 206.96,168.07 207.36,167.44 207.75,166.74 208.14,165.99 208.53,165.17 208.93,164.29 209.32,163.35 209.71,162.37 210.1,161.35 210.5,160.28 210.89,159.16 211.28,158 211.67,156.81 212.07,155.59 212.46,154.33 212.85,153.03 213.25,151.71 213.64,150.36 214.03,148.98 214.42,147.58 214.82,146.15 215.21,144.71 215.6,143.24 215.99,141.75 216.39,140.25 216.78,138.73 217.17,137.2 217.56,135.65 217.96,134.09 218.35,132.53 218.74,130.96 219.13,129.38 219.53,127.8 219.92,126.22 220.31,124.63 220.71,123.05 221.1,121.47 221.49,119.9 221.88,118.33 222.28,116.78 222.67,115.23 223.06,113.69 223.45,112.16 223.85,110.65 224.24,109.15 224.63,107.67 225.02,106.2 225.42,104.75 225.81,103.32 226.2,101.91 226.6,100.51 226.99,99.14 227.38,97.79 227.77,96.46 228.17,95.14 228.56,93.85 228.95,92.58 229.34,91.34 229.74,90.11 230.13,88.91 230.52,87.72 230.91,86.56 231.31,85.43 231.7,84.31 232.09,83.21 232.48,82.14 232.88,81.09 233.27,80.06 233.66,79.05 234.06,78.06 234.45,77.08 234.84,76.14 235.23,75.21 235.63,74.3 236.02,73.41 236.41,72.54 236.8,71.7 237.2,70.87 237.59,70.06 237.98,69.28 238.37,68.51 238.77,67.76 239.16,67.03 239.55,66.33 239.95,65.64 240.34,64.97 240.73,64.33 241.12,63.7 241.52,63.1 241.91,62.52 242.3,61.96 242.69,61.42 243.09,60.91 243.48,60.41 243.87,59.94 244.26,59.49 244.66,59.06 245.05,58.66 245.44,58.28 245.84,57.91 246.23,57.57 246.62,57.25 247.01,56.95 247.41,56.67 247.8,56.41 248.19,56.17 248.58,55.95 248.98,55.74 249.37,55.55 249.76,55.38 250.15,55.22 250.55,55.07 250.94,54.94 251.33,54.83 251.72,54.72 252.12,54.62 252.51,54.54 252.9,54.46 253.3,54.4 253.69,54.34 254.08,54.28 254.47,54.23 254.87,54.19 255.26,54.16 255.65,54.13 256.04,54.1 256.44,54.08 256.83,54.06 257.22,54.04 257.61,54.03 258.01,54.02 258.4,54.01 258.79,54 259.19,53.99 259.58,53.98 259.97,53.98 260.36,53.97 260.76,53.97" stroke-dasharray="none" stroke="rgb(31,120,180)" stroke-width="0.75" opacity="1" stroke-opacity="1" fill="none"/>
          </g>
        </g>
        <g id="Fig:densplot_01.panel.1.1.off.vp.2">
          <g id="Fig:densplot_01.border.panel.1.1.1">
            <rect id="Fig:densplot_01.border.panel.1.1.1.1" x="44.8" y="42.19" width="231.2" height="191.81" transform="" stroke="rgb(0,0,0)" stroke-dasharray="none" stroke-width="0.75" opacity="1" fill="none" stroke-opacity="1" fill-opacity="0"/>
          </g>
        </g>
        <g id="Fig:densplot_01..1"/>
      </g>
    </g>
  </g>
</svg>